<?xml version="1.0" encoding="utf-8"?>
<!-- Generator: Adobe Illustrator 26.0.2, SVG Export Plug-In . SVG Version: 6.00 Build 0)  -->
<svg version="1.1" xmlns="http://www.w3.org/2000/svg" xmlns:xlink="http://www.w3.org/1999/xlink" x="0px" y="0px"
	 viewBox="0 0 841.89 595.28" style="enable-background:new 0 0 841.89 595.28;" xml:space="preserve">
<style type="text/css">
	.st0{fill:none;stroke:#010101;stroke-width:0.7087;stroke-linecap:round;stroke-linejoin:round;stroke-miterlimit:10;}
	.st1{fill:#030303;}
	.st2{font-family:'Lato-Bold';}
	.st3{font-size:8px;}
	.st4{fill:none;stroke:#010101;stroke-width:0.5;stroke-miterlimit:10;}
	.st5{fill:none;stroke:#010101;stroke-width:1.4173;stroke-linecap:round;stroke-linejoin:round;}
	.st6{fill:#010101;}
</style>
<g id="Layer_1">
	<g id="SPLINE_348_">
		<path class="st0" d="M174.74,148.24c2.37-0.1,4.75-0.11,7.12-0.03c3.04,0.11,6.08,0.35,9.09,0.74c3.03,0.39,6.1,0.91,9.26,1.57
			c3.3,0.7,6.58,1.52,9.81,2.48c0.53,0.15,1.06,0.32,1.59,0.48c1.21,0.37,2.41,0.76,3.6,1.16c1.78,0.6,3.55,1.24,5.3,1.92
			c3.49,1.33,6.95,2.79,10.53,4.35c3.46,1.51,6.99,3.1,10.63,4.74c3.56,1.61,7.2,3.26,10.93,4.94c3.71,1.67,7.44,3.31,11.18,4.93"/>
	</g>
	<g id="ARC_83_">
		<path class="st0" d="M263.79,175.51c3.96,1.6,19.48,7.96,23.49,9.45"/>
	</g>
	<g id="ARC_84_">
		<path class="st0" d="M287.28,184.96c4.1,1.53,8.22,2.98,12.36,4.37"/>
	</g>
	<g id="SPLINE_349_">
		<path class="st0" d="M299.64,189.32c2.11,0.7,4.23,1.39,6.35,2.05c2.16,0.67,4.33,1.32,6.5,1.95c4.44,1.28,8.9,2.48,13.39,3.58
			c2.26,0.56,4.53,1.09,6.8,1.6c2.28,0.51,4.56,1,6.84,1.48"/>
	</g>
	<g id="ARC_85_">
		<path class="st0" d="M339.52,199.98c4.58,0.94,9.17,1.81,13.78,2.59"/>
	</g>
	<g id="ARC_86_">
		<path class="st0" d="M353.29,202.58c4.59,0.79,9.2,1.51,13.81,2.18"/>
	</g>
	<g id="ARC_87_">
		<path class="st0" d="M367.1,204.76c4.58,0.66,9.18,1.27,13.78,1.84"/>
	</g>
	<g id="ARC_88_">
		<path class="st0" d="M380.88,206.59c4.56,0.56,9.12,1.08,13.68,1.56"/>
	</g>
	<g id="ARC_89_">
		<path class="st0" d="M394.56,208.16c4.53,0.48,9.06,0.92,13.59,1.33"/>
	</g>
	<g id="SPLINE_350_">
		<path class="st0" d="M408.16,209.48c4.51,0.41,9.03,0.78,13.55,1.13c4.52,0.35,9.04,0.66,13.56,0.95
			c4.56,0.29,9.14,0.56,13.7,0.81c4.64,0.25,9.29,0.49,13.93,0.72"/>
	</g>
	<g id="ARC_90_">
		<path class="st0" d="M462.9,213.09c4.69,0.23,9.38,0.46,14.07,0.67"/>
	</g>
	<g id="ARC_91_">
		<path class="st0" d="M476.98,213.77c4.69,0.22,9.38,0.44,14.08,0.66"/>
	</g>
	<g id="ARC_92_">
		<path class="st0" d="M505.04,215.09c-4.66-0.22-9.33-0.44-13.99-0.66"/>
	</g>
	<g id="ARC_93_">
		<path class="st0" d="M518.9,215.77c-4.62-0.23-9.24-0.46-13.86-0.68"/>
	</g>
	<g id="ARC_94_">
		<path class="st0" d="M532.59,216.49c-4.56-0.25-9.12-0.49-13.68-0.72"/>
	</g>
	<g id="ARC_95_">
		<path class="st0" d="M546.04,217.28c-4.48-0.28-8.96-0.54-13.45-0.79"/>
	</g>
	<g id="SPLINE_351_">
		<path class="st0" d="M546.04,217.28c4.37,0.27,8.73,0.56,13.1,0.88c4.18,0.3,8.37,0.61,12.55,0.94"/>
	</g>
	<g id="ARC_96_">
		<path class="st0" d="M583.43,220.08c-3.91-0.35-7.83-0.67-11.75-0.98"/>
	</g>
	<g id="ARC_97_">
		<path class="st0" d="M594.16,221.09c-3.57-0.36-7.15-0.7-10.73-1.01"/>
	</g>
	<g id="ARC_98_">
		<path class="st0" d="M599.09,221.6c-1.64-0.18-3.28-0.35-4.92-0.52"/>
	</g>
	<g id="ARC_99_">
		<path class="st0" d="M603.69,222.12c-1.53-0.18-3.07-0.35-4.6-0.52"/>
	</g>
	<g id="ARC_100_">
		<path class="st0" d="M611.9,223.15c-2.73-0.37-5.47-0.71-8.21-1.03"/>
	</g>
	<g id="ARC_101_">
		<path class="st0" d="M618.8,224.15c-2.3-0.36-4.6-0.69-6.91-1"/>
	</g>
	<g id="ARC_102_">
		<path class="st0" d="M624.52,225.09c-1.9-0.34-3.81-0.65-5.72-0.94"/>
	</g>
	<g id="ARC_103_">
		<path class="st0" d="M629.2,225.96c-1.56-0.31-3.12-0.6-4.68-0.88"/>
	</g>
	<g id="SPLINE_352_">
		<path class="st0" d="M629.2,225.96c1.25,0.25,2.49,0.5,3.73,0.76c0.54,0.11,1.04,0.22,1.49,0.31c0.4,0.08,0.8,0.16,1.21,0.25
			c0.34,0.07,0.63,0.12,0.82,0.15c0.17,0.03,0.28,0.04,0.27,0.04"/>
	</g>
	<g id="SPLINE_353_">
		<path class="st0" d="M636.72,227.48c5.3,1.31,9.48,0.92,12.54-1.16"/>
	</g>
	<g id="ARC_104_">
		<path class="st0" d="M649.87,227.69c0-0.52-0.22-1.02-0.61-1.37"/>
	</g>
	<g id="SPLINE_354_">
		<path class="st0" d="M649.87,227.69"/>
	</g>
	<g id="LINE_166_">
		<line class="st0" x1="649.87" y1="227.69" x2="649.87" y2="228.57"/>
	</g>
	<g id="SPLINE_355_">
		<path class="st0" d="M649.87,228.57c0,0,0,0.01,0,0.01"/>
	</g>
	<g id="ARC_105_">
		<path class="st0" d="M649.81,229.22c0.02-0.22,0.04-0.43,0.06-0.64"/>
	</g>
	<g id="SPLINE_356_">
		<path class="st0" d="M649.81,229.22c-0.02,0.12-0.04,0.24-0.06,0.35c-0.06,0.27-0.13,0.54-0.21,0.8
			c-0.07,0.22-0.15,0.43-0.25,0.64c-0.07,0.16-0.15,0.31-0.23,0.46c-0.1,0.18-0.21,0.36-0.33,0.53c-0.32,0.46-0.71,0.86-1.16,1.19
			c-0.47,0.36-1.02,0.65-1.64,0.87c-0.49,0.17-1.03,0.3-1.6,0.37c-0.65,0.09-1.36,0.12-2.14,0.1c-0.63-0.01-1.26-0.05-1.88-0.11
			c-0.39-0.03-0.78-0.07-1.17-0.11c-0.51-0.05-1.01-0.11-1.52-0.17c-0.46-0.06-0.93-0.11-1.39-0.18c-0.62-0.08-1.25-0.16-1.87-0.25
			c-0.3-0.04-0.6-0.08-0.92-0.12c-0.36-0.05-0.74-0.1-1.12-0.15c-0.7-0.1-1.43-0.2-2.22-0.3c-0.75-0.1-1.55-0.21-2.39-0.33
			c-0.81-0.11-1.66-0.23-2.56-0.35c-1.95-0.26-3.9-0.53-5.85-0.79c-1.06-0.14-2.17-0.29-3.32-0.44c-1.05-0.14-2.13-0.29-3.25-0.43
			c-1.1-0.15-2.24-0.3-3.41-0.45c-0.62-0.08-1.26-0.17-1.91-0.25c-0.55-0.07-1.11-0.14-1.67-0.22c-1.25-0.17-2.49-0.33-3.74-0.49
			c-1.3-0.17-2.59-0.33-3.89-0.5c-1.35-0.17-2.7-0.34-4.05-0.51c-1.51-0.19-3.02-0.37-4.54-0.56c-1.57-0.19-3.14-0.38-4.71-0.56
			c-1.51-0.18-3.02-0.35-4.53-0.52c-1.56-0.18-3.12-0.35-4.68-0.52c-0.86-0.09-1.72-0.19-2.58-0.28c-0.75-0.08-1.5-0.16-2.25-0.23
			c-3.36-0.35-6.73-0.67-10.09-0.98c-1.75-0.16-3.5-0.32-5.25-0.47c-1.93-0.17-3.87-0.33-5.8-0.48c-4.44-0.36-8.88-0.69-13.32-1
			c-3.88-0.27-7.76-0.53-11.64-0.78c-4-0.25-8-0.49-12-0.73c-4.1-0.24-8.2-0.47-12.31-0.69c-4.19-0.23-8.37-0.44-12.56-0.66
			c-4.25-0.22-8.51-0.43-12.76-0.64"/>
	</g>
	<g id="SPLINE_357_">
		<path class="st0" d="M475.03,219.29c-4.29-0.21-8.58-0.43-12.88-0.64c-4.72-0.24-9.44-0.48-14.16-0.73
			c-6.98-0.37-13.96-0.76-20.93-1.22c-4.02-0.26-8.04-0.54-12.06-0.83c-3.1-0.23-6.2-0.48-9.3-0.74c-4.7-0.4-9.39-0.83-14.08-1.31
			c-4.7-0.48-9.39-1.01-14.08-1.59c-3.32-0.41-6.64-0.86-9.96-1.33c-3.72-0.53-7.44-1.1-11.15-1.71c-3.73-0.61-7.46-1.28-11.18-1.99
			c-3.28-0.63-6.55-1.3-9.81-2.01c-2.32-0.51-4.63-1.03-6.94-1.58c-2.31-0.55-4.61-1.12-6.91-1.72c-1.2-0.31-2.4-0.63-3.59-0.95
			c-1.64-0.44-3.27-0.9-4.9-1.36c-1.71-0.49-3.41-0.98-5.11-1.49c-1.54-0.46-3.07-0.93-4.6-1.41c-1.53-0.48-3.06-0.96-4.58-1.46
			c-1.69-0.55-3.39-1.11-5.07-1.68c-3.37-1.14-6.72-2.3-10.06-3.5c-1.66-0.6-3.32-1.2-4.98-1.81c-1.65-0.61-3.3-1.22-4.94-1.84
			c-1.63-0.61-3.26-1.23-4.9-1.85c-1.45-0.56-2.91-1.12-4.36-1.68c-3.02-1.17-6.04-2.35-9.05-3.55c-1.56-0.62-3.12-1.24-4.67-1.85
			c-1.53-0.61-3.07-1.22-4.6-1.84c-1.52-0.61-3.03-1.21-4.53-1.81c-1.48-0.59-2.96-1.19-4.45-1.77c-2.73-1.09-5.47-2.17-8.21-3.25
			c-2.61-1.03-5.23-2.04-7.86-3.04c-2.61-1-5.22-1.97-7.85-2.92c-1.25-0.45-2.49-0.89-3.74-1.33c-1.2-0.42-2.41-0.83-3.62-1.24
			c-1.16-0.39-2.32-0.76-3.48-1.13c-1-0.32-2.01-0.62-3.02-0.92c-4.36-1.3-8.25-2.29-11.7-3.01c-1.81-0.38-3.5-0.68-5.07-0.91
			c-1.51-0.22-2.9-0.38-4.19-0.46c-1.4-0.1-2.68-0.12-3.81-0.07"/>
	</g>
	<g id="SPLINE_341_">
		<path class="st0" d="M424.96,350.06"/>
	</g>
	<g id="SPLINE_113_">
		<path class="st0" d="M563.89,338.18c0,3.06-1.53,4.59-4.59,4.59c-3.06,0-4.59-1.53-4.59-4.59c0-3.06,1.53-4.59,4.59-4.59
			C562.36,333.59,563.89,335.12,563.89,338.18z"/>
	</g>
	<g id="SPLINE_112_">
		<path class="st0" d="M563.89,367.56c0,3.06-1.53,4.59-4.59,4.59c-3.06,0-4.59-1.53-4.59-4.59c0-3.06,1.53-4.59,4.59-4.59
			C562.36,362.97,563.89,364.5,563.89,367.56z"/>
	</g>
	<g id="SPLINE_111_">
		<path class="st0" d="M563.89,352.87c0,3.06-1.53,4.59-4.59,4.59c-3.06,0-4.59-1.53-4.59-4.59c0-3.06,1.53-4.59,4.59-4.59
			C562.36,348.28,563.89,349.81,563.89,352.87z"/>
	</g>
	<g id="SPLINE_110_">
		<path class="st0" d="M271.97,352.87c0,3.06-1.53,4.59-4.59,4.59c-3.06,0-4.59-1.53-4.59-4.59c0-3.06,1.53-4.59,4.59-4.59
			C270.44,348.28,271.97,349.81,271.97,352.87z"/>
	</g>
	<g id="SPLINE_101_">
		<path class="st0" d="M271.97,367.56c0,3.06-1.53,4.59-4.59,4.59c-3.06,0-4.59-1.53-4.59-4.59c0-3.06,1.53-4.59,4.59-4.59
			C270.44,362.97,271.97,364.5,271.97,367.56z"/>
	</g>
	<g id="SPLINE_100_">
		<path class="st0" d="M271.97,338.18c0,3.06-1.53,4.59-4.59,4.59c-3.06,0-4.59-1.53-4.59-4.59c0-3.06,1.53-4.59,4.59-4.59
			C270.44,333.59,271.97,335.12,271.97,338.18z"/>
	</g>
	<g id="SPLINE_99_">
		<path class="st0" d="M160.64,374.58c0,1.03,0,2.05,0,3.08"/>
	</g>
	<g id="SPLINE_98_">
		<path class="st0" d="M160.63,380.41c0,7.34,0,14.69,0,22.03"/>
	</g>
	<g id="SPLINE_193_">
		<path class="st0" d="M188.12,165.77c-0.15-0.27-0.3-0.53-0.45-0.79"/>
	</g>
	<g id="SPLINE_192_">
		<path class="st0" d="M187.78,165.16c0.17,0.29,0.33,0.58,0.5,0.87"/>
	</g>
	<g id="SPLINE_95_">
		<path class="st0" d="M494.42,342.03c-0.03-0.1-0.07-0.21-0.1-0.31"/>
	</g>
	<g id="SPLINE_94_">
		<path class="st0" d="M495.54,341.72c0.01,0.04,0.03,0.08,0.04,0.13"/>
	</g>
	<g id="SPLINE_93_">
		<path class="st0" d="M151.46,374.58c0,1.03,0,2.05,0,3.08"/>
	</g>
	<g id="SPLINE_92_">
		<path class="st0" d="M151.45,380.41c0,7.34,0,14.69,0,22.03"/>
	</g>
	<g id="SPLINE_191_">
		<path class="st0" d="M173.27,148.33c0.12-0.01,0.24-0.02,0.36-0.03"/>
	</g>
	<g id="SPLINE_190_">
		<path class="st0" d="M628.23,232.9c-0.12,0-0.24,0-0.35,0.01c-0.24,0-0.48,0.01-0.72,0.01"/>
	</g>
	<g id="SPLINE_89_">
		<path class="st0" d="M675.23,380.41c0,7.34,0,14.69,0,22.03"/>
	</g>
	<g id="SPLINE_88_">
		<path class="st0" d="M675.23,374.58c0,1.03,0,2.05,0,3.08"/>
	</g>
	<g id="SPLINE_87_">
		<path class="st0" d="M666.05,380.41c0,7.34,0,14.69,0,22.03"/>
	</g>
	<g id="SPLINE_86_">
		<path class="st0" d="M666.05,374.58c0,1.03,0,2.05,0,3.08"/>
	</g>
	<g id="LINE_164_">
		<line class="st0" x1="141.62" y1="380.41" x2="141.62" y2="402.44"/>
	</g>
	<g id="LINE_163_">
		<line class="st0" x1="685.07" y1="380.41" x2="685.07" y2="377.66"/>
	</g>
	<g id="SPLINE_85_">
		<path class="st0" d="M685.07,377.66c0,0.92,0,1.84,0,2.75"/>
	</g>
	<g id="SPLINE_84_">
		<path class="st0" d="M685.07,380.41c0,7.34,0,14.69,0,22.03"/>
	</g>
	<g id="SPLINE_83_">
		<path class="st0" d="M685.07,402.44c0,0.92,0,1.84,0,2.75"/>
	</g>
	<g id="LINE_162_">
		<line class="st0" x1="151.45" y1="405.2" x2="151.46" y2="405.24"/>
	</g>
	<g id="LINE_161_">
		<line class="st0" x1="151.46" y1="405.24" x2="152.01" y2="405.79"/>
	</g>
	<g id="LINE_160_">
		<line class="st0" x1="152.01" y1="405.79" x2="160.08" y2="405.79"/>
	</g>
	<g id="LINE_159_">
		<line class="st0" x1="160.08" y1="405.79" x2="160.63" y2="405.24"/>
	</g>
	<g id="SPLINE_189_">
		<path class="st0" d="M183.21,157.28c13.91,23.52,26.34,48.43,35.7,74.1c4.95,13.57,9.08,27.48,12.1,41.62
			c0,0,25.46,7.17,45.04,2.89c0,0,29.09-20.8,44.83-40.24c2.6-3.21,3.21-4.13,3.21-4.13"/>
	</g>
	<g id="SPLINE_188_">
		<path class="st0" d="M183.21,157.28c-1.14-1.92-2.8-3.08-4.99-3.48"/>
	</g>
	<g id="LINE_158_">
		<line class="st0" x1="666.05" y1="405.24" x2="666.6" y2="405.79"/>
	</g>
	<g id="LINE_157_">
		<line class="st0" x1="666.6" y1="405.79" x2="674.68" y2="405.79"/>
	</g>
	<g id="LINE_156_">
		<line class="st0" x1="674.68" y1="405.79" x2="675.23" y2="405.24"/>
	</g>
	<g id="LINE_155_">
		<line class="st0" x1="675.23" y1="405.24" x2="675.23" y2="405.2"/>
	</g>
	<g id="LINE_154_">
		<line class="st0" x1="685.07" y1="377.66" x2="141.62" y2="377.66"/>
	</g>
	<g id="LINE_153_">
		<line class="st0" x1="141.62" y1="377.66" x2="141.62" y2="380.41"/>
	</g>
	<g id="LINE_152_">
		<line class="st0" x1="141.62" y1="380.41" x2="685.07" y2="380.41"/>
	</g>
	<g id="LINE_151_">
		<line class="st0" x1="685.07" y1="380.41" x2="685.07" y2="402.44"/>
	</g>
	<g id="LINE_150_">
		<line class="st0" x1="685.07" y1="402.44" x2="141.62" y2="402.44"/>
	</g>
	<g id="LINE_149_">
		<line class="st0" x1="141.62" y1="402.44" x2="141.62" y2="405.2"/>
	</g>
	<g id="LINE_148_">
		<line class="st0" x1="141.62" y1="405.2" x2="685.07" y2="405.2"/>
	</g>
	<g id="LINE_147_">
		<line class="st0" x1="685.07" y1="405.2" x2="685.07" y2="402.44"/>
	</g>
	<g id="SPLINE_59_">
		<path class="st0" d="M596.94,377.66c0-14.99,0-27.75-2.04-34.57c-2.04-6.82-6.1-7.7-11.38-8.92c-5.28-1.22-11.77-2.78-24.22-6.08"
			/>
	</g>
	<g id="SPLINE_56_">
		<path class="st0" d="M559.3,328.08c-48.03,13.29-97,20.2-145.96,20.2c-48.97,0-97.93-6.91-145.96-20.2"/>
	</g>
	<g id="SPLINE_53_">
		<path class="st0" d="M267.38,328.08c-12.46,3.3-18.94,4.86-24.22,6.08c-5.28,1.22-9.35,2.1-11.38,8.92
			c-2.03,6.82-2.03,19.58-2.03,34.57"/>
	</g>
	<g id="SPLINE_187_">
		<path class="st0" d="M624.28,235.71c-7.16,7.26-13.14,15.55-18.15,24.42c-0.63,1.11-1.24,2.23-1.84,3.36
			c-1.16,2.19-2.26,4.4-3.31,6.65c-1.6,3.42-3.09,6.92-4.48,10.47c0,0-45.67,24.34-69.54,5.98c-23.87-18.36-29.38-42.23-29.38-42.23
			"/>
	</g>
	<g id="ARC_23_">
		<path class="st0" d="M627.31,232.77c-1.03,0.96-2.04,1.94-3.03,2.94"/>
	</g>
	<g id="LINE_146_">
		<line class="st0" x1="681.65" y1="354.74" x2="681.65" y2="354.38"/>
	</g>
	<g id="SPLINE_33_">
		<path class="st0" d="M681.65,354.38c0-1.23-0.61-1.84-1.84-1.84"/>
	</g>
	<g id="LINE_145_">
		<line class="st0" x1="679.82" y1="352.55" x2="670.64" y2="352.55"/>
	</g>
	<g id="LINE_144_">
		<line class="st0" x1="670.64" y1="352.55" x2="661.46" y2="352.55"/>
	</g>
	<g id="ARC_80_">
		<path class="st0" d="M661.46,352.55c-1.01,0-1.84,0.82-1.84,1.84"/>
	</g>
	<g id="SPLINE_32_">
		<path class="st0" d="M659.62,354.38c0,0.12,0,0.24,0,0.35"/>
	</g>
	<g id="SPLINE_31_">
		<path class="st0" d="M659.62,354.74c0.06,0,0.11,0,0.17,0"/>
	</g>
	<g id="SPLINE_30_">
		<path class="st0" d="M659.79,354.73c0.01,0,0.02,0,0.02,0.01c0.01,0.01,0.02,0.01,0.03,0.02c0.02,0.02,0.04,0.05,0.06,0.09
			c0.02,0.04,0.04,0.09,0.05,0.14c0.02,0.06,0.04,0.11,0.05,0.17c0.03,0.13,0.06,0.27,0.07,0.41c0.01,0.08,0.01,0.15,0.02,0.22
			c0,0.08,0.01,0.15,0.01,0.23"/>
	</g>
	<g id="LINE_143_">
		<line class="st0" x1="660.1" y1="356.01" x2="660.1" y2="362.85"/>
	</g>
	<g id="SPLINE_29_">
		<path class="st0" d="M660.1,362.85c0,0.15-0.01,0.3-0.02,0.45c-0.02,0.14-0.04,0.27-0.07,0.41c-0.01,0.06-0.03,0.11-0.05,0.17
			c-0.02,0.05-0.04,0.09-0.06,0.14c-0.02,0.03-0.03,0.06-0.06,0.08c-0.01,0.01-0.02,0.02-0.03,0.02c-0.01,0-0.01,0.01-0.02,0.01"/>
	</g>
	<g id="SPLINE_28_">
		<path class="st0" d="M659.79,364.13c-0.06,0-0.11,0-0.17,0"/>
	</g>
	<g id="SPLINE_27_">
		<path class="st0" d="M659.62,364.13c0,2.87,0,5.74,0,8.62c0,0.5,0.18,0.94,0.54,1.3s0.79,0.54,1.3,0.54"/>
	</g>
	<g id="LINE_142_">
		<line class="st0" x1="661.46" y1="374.58" x2="661.47" y2="374.58"/>
	</g>
	<g id="LINE_141_">
		<line class="st0" x1="661.47" y1="374.58" x2="661.7" y2="374.58"/>
	</g>
	<g id="LINE_140_">
		<line class="st0" x1="661.7" y1="374.58" x2="661.82" y2="374.58"/>
	</g>
	<g id="LINE_139_">
		<line class="st0" x1="661.82" y1="374.58" x2="661.88" y2="374.58"/>
	</g>
	<g id="LINE_138_">
		<line class="st0" x1="661.88" y1="374.58" x2="661.88" y2="374.58"/>
	</g>
	<g id="LINE_137_">
		<line class="st0" x1="661.88" y1="374.58" x2="661.95" y2="374.58"/>
	</g>
	<g id="LINE_136_">
		<line class="st0" x1="661.95" y1="374.58" x2="661.95" y2="374.58"/>
	</g>
	<g id="LINE_135_">
		<line class="st0" x1="661.95" y1="374.58" x2="662.1" y2="374.58"/>
	</g>
	<g id="LINE_134_">
		<line class="st0" x1="662.1" y1="374.58" x2="662.72" y2="374.58"/>
	</g>
	<g id="LINE_133_">
		<line class="st0" x1="662.72" y1="374.58" x2="662.83" y2="374.58"/>
	</g>
	<g id="LINE_132_">
		<line class="st0" x1="662.83" y1="374.58" x2="662.84" y2="374.58"/>
	</g>
	<g id="LINE_131_">
		<line class="st0" x1="662.84" y1="374.58" x2="662.96" y2="374.58"/>
	</g>
	<g id="LINE_130_">
		<line class="st0" x1="662.96" y1="374.58" x2="662.97" y2="374.58"/>
	</g>
	<g id="LINE_129_">
		<line class="st0" x1="662.97" y1="374.58" x2="663.09" y2="374.58"/>
	</g>
	<g id="LINE_128_">
		<line class="st0" x1="663.09" y1="374.58" x2="663.1" y2="374.58"/>
	</g>
	<g id="LINE_127_">
		<line class="st0" x1="663.1" y1="374.58" x2="663.22" y2="374.58"/>
	</g>
	<g id="LINE_126_">
		<line class="st0" x1="663.22" y1="374.58" x2="663.23" y2="374.58"/>
	</g>
	<g id="LINE_125_">
		<line class="st0" x1="663.23" y1="374.58" x2="663.37" y2="374.58"/>
	</g>
	<g id="LINE_124_">
		<line class="st0" x1="663.37" y1="374.58" x2="663.37" y2="374.58"/>
	</g>
	<g id="LINE_123_">
		<line class="st0" x1="663.37" y1="374.58" x2="663.51" y2="374.58"/>
	</g>
	<g id="LINE_122_">
		<line class="st0" x1="663.51" y1="374.58" x2="663.52" y2="374.58"/>
	</g>
	<g id="LINE_121_">
		<line class="st0" x1="663.52" y1="374.58" x2="664.15" y2="374.58"/>
	</g>
	<g id="LINE_120_">
		<line class="st0" x1="664.15" y1="374.58" x2="670.64" y2="374.58"/>
	</g>
	<g id="LINE_119_">
		<line class="st0" x1="670.64" y1="374.58" x2="679.82" y2="374.58"/>
	</g>
	<g id="SPLINE_26_">
		<path class="st0" d="M679.82,374.58c1.22,0,1.84-0.61,1.84-1.83c0-2.87,0-5.75,0-8.62"/>
	</g>
	<g id="SPLINE_25_">
		<path class="st0" d="M681.65,364.13c-0.06,0-0.11,0-0.17,0"/>
	</g>
	<g id="SPLINE_24_">
		<path class="st0" d="M681.49,364.13c-0.01,0-0.02,0-0.02-0.01c-0.01,0-0.02-0.01-0.03-0.02c-0.02-0.02-0.04-0.05-0.05-0.08
			c-0.02-0.04-0.04-0.09-0.06-0.14c-0.02-0.05-0.03-0.11-0.05-0.17c-0.03-0.13-0.06-0.27-0.07-0.41c-0.01-0.08-0.01-0.15-0.02-0.22
			c-0.01-0.08-0.01-0.15-0.01-0.23"/>
	</g>
	<g id="LINE_118_">
		<line class="st0" x1="681.17" y1="362.85" x2="681.17" y2="356.01"/>
	</g>
	<g id="SPLINE_23_">
		<path class="st0" d="M681.17,356.01c0-0.15,0.01-0.3,0.03-0.45c0.01-0.14,0.04-0.27,0.07-0.41c0.01-0.06,0.03-0.11,0.05-0.17
			c0.02-0.05,0.03-0.1,0.06-0.14c0.01-0.03,0.03-0.06,0.05-0.09c0.01-0.01,0.02-0.02,0.03-0.02c0.01,0,0.01-0.01,0.02-0.01"/>
	</g>
	<g id="ARC_79_">
		<path class="st0" d="M683.43,354.79c-0.65-0.02-1.3-0.04-1.95-0.05"/>
	</g>
	<g id="ARC_78_">
		<path class="st0" d="M691.03,355.09c-2.53-0.13-5.06-0.23-7.6-0.3"/>
	</g>
	<g id="LINE_117_">
		<line class="st0" x1="691.03" y1="355.09" x2="691.9" y2="355.13"/>
	</g>
	<g id="ARC_77_">
		<path class="st0" d="M694.51,357.88c0-1.47-1.15-2.68-2.61-2.75"/>
	</g>
	<g id="LINE_116_">
		<line class="st0" x1="694.51" y1="357.88" x2="694.51" y2="360.98"/>
	</g>
	<g id="ARC_76_">
		<path class="st0" d="M691.9,363.73c1.46-0.08,2.61-1.29,2.61-2.75"/>
	</g>
	<g id="LINE_115_">
		<line class="st0" x1="691.9" y1="363.73" x2="691.03" y2="363.78"/>
	</g>
	<g id="ARC_75_">
		<path class="st0" d="M683.44,364.08c2.53-0.07,5.06-0.17,7.59-0.3"/>
	</g>
	<g id="ARC_74_">
		<line class="st0" x1="683.44" y1="364.08" x2="683.43" y2="364.08"/>
	</g>
	<g id="ARC_73_">
		<path class="st0" d="M681.49,364.13c0.65-0.02,1.29-0.03,1.94-0.05"/>
	</g>
	<g id="LINE_114_">
		<line class="st0" x1="666.05" y1="405.2" x2="666.05" y2="405.24"/>
	</g>
	<g id="LINE_113_">
		<line class="st0" x1="666.05" y1="405.24" x2="675.23" y2="405.24"/>
	</g>
	<g id="LINE_112_">
		<line class="st0" x1="160.63" y1="405.2" x2="160.63" y2="405.24"/>
	</g>
	<g id="LINE_111_">
		<line class="st0" x1="160.63" y1="405.24" x2="151.46" y2="405.24"/>
	</g>
	<g id="LINE_110_">
		<line class="st0" x1="145.03" y1="354.74" x2="145.03" y2="354.38"/>
	</g>
	<g id="SPLINE_22_">
		<path class="st0" d="M145.03,354.38c0-1.23,0.61-1.84,1.84-1.84"/>
	</g>
	<g id="LINE_109_">
		<line class="st0" x1="146.87" y1="352.55" x2="156.05" y2="352.55"/>
	</g>
	<g id="LINE_108_">
		<line class="st0" x1="156.05" y1="352.55" x2="165.23" y2="352.55"/>
	</g>
	<g id="ARC_72_">
		<path class="st0" d="M167.06,354.38c0-1.02-0.82-1.84-1.84-1.84"/>
	</g>
	<g id="SPLINE_21_">
		<path class="st0" d="M167.06,354.38c0,0.12,0,0.24,0,0.35"/>
	</g>
	<g id="SPLINE_20_">
		<path class="st0" d="M167.06,354.74c-0.06,0-0.11,0-0.17,0"/>
	</g>
	<g id="SPLINE_19_">
		<path class="st0" d="M166.89,354.73c-0.01,0-0.02,0-0.02,0.01c-0.01,0.01-0.02,0.01-0.03,0.02c-0.02,0.02-0.04,0.05-0.06,0.09
			c-0.02,0.04-0.04,0.09-0.06,0.14c-0.02,0.06-0.03,0.11-0.05,0.17c-0.03,0.13-0.06,0.27-0.07,0.41c-0.01,0.08-0.01,0.15-0.02,0.22
			c0,0.08-0.01,0.15-0.01,0.23"/>
	</g>
	<g id="LINE_107_">
		<line class="st0" x1="166.58" y1="356.01" x2="166.58" y2="362.85"/>
	</g>
	<g id="SPLINE_18_">
		<path class="st0" d="M166.58,362.85c0,0.15,0.01,0.3,0.02,0.45c0.02,0.14,0.04,0.27,0.07,0.41c0.01,0.06,0.03,0.11,0.05,0.17
			c0.02,0.05,0.04,0.09,0.06,0.14c0.02,0.03,0.03,0.06,0.06,0.08c0.01,0.01,0.02,0.02,0.03,0.02c0.01,0,0.02,0.01,0.02,0.01"/>
	</g>
	<g id="SPLINE_17_">
		<path class="st0" d="M166.89,364.13c0.06,0,0.11,0,0.17,0"/>
	</g>
	<g id="SPLINE_16_">
		<path class="st0" d="M167.06,364.13c0,2.87,0,5.74,0,8.62c0,0.5-0.18,0.94-0.54,1.3c-0.36,0.36-0.79,0.54-1.3,0.54"/>
	</g>
	<g id="LINE_106_">
		<line class="st0" x1="165.23" y1="374.58" x2="165.22" y2="374.58"/>
	</g>
	<g id="LINE_105_">
		<line class="st0" x1="165.22" y1="374.58" x2="164.98" y2="374.58"/>
	</g>
	<g id="LINE_104_">
		<line class="st0" x1="164.98" y1="374.58" x2="164.87" y2="374.58"/>
	</g>
	<g id="LINE_103_">
		<line class="st0" x1="164.87" y1="374.58" x2="164.81" y2="374.58"/>
	</g>
	<g id="LINE_102_">
		<line class="st0" x1="164.81" y1="374.58" x2="164.8" y2="374.58"/>
	</g>
	<g id="LINE_101_">
		<line class="st0" x1="164.8" y1="374.58" x2="164.74" y2="374.58"/>
	</g>
	<g id="LINE_100_">
		<line class="st0" x1="164.74" y1="374.58" x2="164.73" y2="374.58"/>
	</g>
	<g id="LINE_99_">
		<line class="st0" x1="164.73" y1="374.58" x2="164.58" y2="374.58"/>
	</g>
	<g id="LINE_98_">
		<line class="st0" x1="164.58" y1="374.58" x2="163.96" y2="374.58"/>
	</g>
	<g id="LINE_97_">
		<line class="st0" x1="163.96" y1="374.58" x2="163.85" y2="374.58"/>
	</g>
	<g id="LINE_96_">
		<line class="st0" x1="163.85" y1="374.58" x2="163.84" y2="374.58"/>
	</g>
	<g id="LINE_95_">
		<line class="st0" x1="163.84" y1="374.58" x2="163.73" y2="374.58"/>
	</g>
	<g id="LINE_94_">
		<line class="st0" x1="163.73" y1="374.58" x2="163.72" y2="374.58"/>
	</g>
	<g id="LINE_93_">
		<line class="st0" x1="163.72" y1="374.58" x2="163.6" y2="374.58"/>
	</g>
	<g id="LINE_92_">
		<line class="st0" x1="163.6" y1="374.58" x2="163.59" y2="374.58"/>
	</g>
	<g id="LINE_91_">
		<line class="st0" x1="163.59" y1="374.58" x2="163.46" y2="374.58"/>
	</g>
	<g id="LINE_90_">
		<line class="st0" x1="163.46" y1="374.58" x2="163.45" y2="374.58"/>
	</g>
	<g id="LINE_89_">
		<line class="st0" x1="163.45" y1="374.58" x2="163.32" y2="374.58"/>
	</g>
	<g id="LINE_88_">
		<line class="st0" x1="163.32" y1="374.58" x2="163.31" y2="374.58"/>
	</g>
	<g id="LINE_87_">
		<line class="st0" x1="163.31" y1="374.58" x2="163.17" y2="374.58"/>
	</g>
	<g id="LINE_86_">
		<line class="st0" x1="163.17" y1="374.58" x2="163.16" y2="374.58"/>
	</g>
	<g id="LINE_85_">
		<line class="st0" x1="163.16" y1="374.58" x2="162.54" y2="374.58"/>
	</g>
	<g id="LINE_84_">
		<line class="st0" x1="162.54" y1="374.58" x2="156.05" y2="374.58"/>
	</g>
	<g id="LINE_83_">
		<line class="st0" x1="156.05" y1="374.58" x2="146.87" y2="374.58"/>
	</g>
	<g id="SPLINE_15_">
		<path class="st0" d="M146.87,374.58c-1.22,0-1.84-0.61-1.84-1.83c0-2.87,0-5.75,0-8.62"/>
	</g>
	<g id="SPLINE_14_">
		<path class="st0" d="M145.03,364.13c0.06,0,0.11,0,0.17,0"/>
	</g>
	<g id="SPLINE_13_">
		<path class="st0" d="M145.2,364.13c0.01,0,0.02,0,0.02-0.01c0.01,0,0.02-0.01,0.03-0.02c0.02-0.02,0.04-0.05,0.06-0.08
			c0.02-0.04,0.04-0.09,0.06-0.14c0.02-0.05,0.03-0.11,0.05-0.17c0.03-0.13,0.06-0.27,0.07-0.41c0.01-0.08,0.01-0.15,0.02-0.22
			c0-0.08,0.01-0.15,0.01-0.23"/>
	</g>
	<g id="LINE_82_">
		<line class="st0" x1="145.51" y1="362.85" x2="145.51" y2="356.01"/>
	</g>
	<g id="SPLINE_12_">
		<path class="st0" d="M145.51,356.01c0-0.15-0.01-0.3-0.02-0.45c-0.02-0.14-0.04-0.27-0.07-0.41c-0.01-0.06-0.03-0.11-0.05-0.17
			c-0.02-0.05-0.03-0.1-0.06-0.14c-0.02-0.03-0.03-0.06-0.06-0.09c-0.01-0.01-0.02-0.02-0.03-0.02c-0.01,0-0.02-0.01-0.02-0.01"/>
	</g>
	<g id="ARC_71_">
		<path class="st0" d="M145.2,354.73c-0.65,0.02-1.3,0.03-1.95,0.05"/>
	</g>
	<g id="ARC_70_">
		<path class="st0" d="M143.25,354.79c-2.53,0.07-5.07,0.17-7.6,0.3"/>
	</g>
	<g id="LINE_81_">
		<line class="st0" x1="135.65" y1="355.09" x2="134.79" y2="355.13"/>
	</g>
	<g id="ARC_69_">
		<path class="st0" d="M134.79,355.13c-1.46,0.07-2.61,1.28-2.61,2.75"/>
	</g>
	<g id="LINE_80_">
		<line class="st0" x1="132.18" y1="357.88" x2="132.18" y2="360.98"/>
	</g>
	<g id="ARC_68_">
		<path class="st0" d="M132.18,360.98c0,1.47,1.15,2.67,2.61,2.75"/>
	</g>
	<g id="LINE_79_">
		<line class="st0" x1="134.79" y1="363.73" x2="135.65" y2="363.78"/>
	</g>
	<g id="ARC_67_">
		<path class="st0" d="M135.65,363.78c2.53,0.13,5.06,0.23,7.59,0.3"/>
	</g>
	<g id="ARC_66_">
		<line class="st0" x1="143.26" y1="364.08" x2="143.25" y2="364.08"/>
	</g>
	<g id="ARC_65_">
		<path class="st0" d="M143.26,364.08c0.65,0.02,1.3,0.03,1.94,0.05"/>
	</g>
	<g id="ARC_64_">
		<path class="st0" d="M166.89,364.13c0.65-0.02,1.3-0.03,1.94-0.05"/>
	</g>
	<g id="ARC_63_">
		<line class="st0" x1="168.85" y1="364.08" x2="168.83" y2="364.08"/>
	</g>
	<g id="ARC_62_">
		<path class="st0" d="M168.85,364.08c2.53-0.07,5.06-0.17,7.59-0.3"/>
	</g>
	<g id="LINE_78_">
		<line class="st0" x1="176.44" y1="363.78" x2="177.3" y2="363.73"/>
	</g>
	<g id="ARC_61_">
		<path class="st0" d="M177.3,363.73c1.46-0.08,2.61-1.29,2.61-2.75"/>
	</g>
	<g id="LINE_77_">
		<line class="st0" x1="179.91" y1="360.98" x2="179.91" y2="357.88"/>
	</g>
	<g id="ARC_60_">
		<path class="st0" d="M179.91,357.88c0-1.47-1.15-2.68-2.61-2.75"/>
	</g>
	<g id="LINE_76_">
		<line class="st0" x1="177.3" y1="355.13" x2="176.44" y2="355.09"/>
	</g>
	<g id="ARC_59_">
		<path class="st0" d="M176.44,355.09c-2.53-0.13-5.06-0.23-7.6-0.3"/>
	</g>
	<g id="ARC_58_">
		<path class="st0" d="M168.84,354.79c-0.65-0.02-1.3-0.04-1.95-0.05"/>
	</g>
	<g id="ARC_57_">
		<path class="st0" d="M657.85,364.08c0.65,0.02,1.3,0.03,1.94,0.05"/>
	</g>
	<g id="ARC_56_">
		<line class="st0" x1="657.85" y1="364.08" x2="657.84" y2="364.08"/>
	</g>
	<g id="ARC_55_">
		<path class="st0" d="M650.25,363.78c2.53,0.13,5.06,0.23,7.59,0.3"/>
	</g>
	<g id="LINE_75_">
		<line class="st0" x1="650.25" y1="363.78" x2="649.38" y2="363.73"/>
	</g>
	<g id="ARC_54_">
		<path class="st0" d="M646.77,360.98c0,1.47,1.15,2.67,2.61,2.75"/>
	</g>
	<g id="LINE_74_">
		<line class="st0" x1="646.77" y1="360.98" x2="646.77" y2="357.88"/>
	</g>
	<g id="ARC_53_">
		<path class="st0" d="M649.38,355.13c-1.46,0.07-2.61,1.28-2.61,2.75"/>
	</g>
	<g id="LINE_73_">
		<line class="st0" x1="649.38" y1="355.13" x2="650.25" y2="355.09"/>
	</g>
	<g id="ARC_52_">
		<path class="st0" d="M657.84,354.79c-2.53,0.07-5.06,0.17-7.6,0.3"/>
	</g>
	<g id="ARC_51_">
		<path class="st0" d="M659.79,354.73c-0.65,0.02-1.3,0.03-1.95,0.05"/>
	</g>
	<g id="SPLINE_186_">
		<path class="st0" d="M649.87,228.58c0,0.04,0,0.08,0,0.13"/>
	</g>
	<g id="SPLINE_97_">
		<path class="st0" d="M649.87,228.71c0,0.08-0.01,0.15-0.02,0.23c-0.01,0.09-0.02,0.19-0.04,0.28"/>
	</g>
	<g id="SPLINE_96_">
		<path class="st0" d="M209.43,207.88c-0.07-0.06-0.13-0.13-0.2-0.2c-0.29-0.29-0.6-0.6-0.92-0.91c-0.33-0.32-0.67-0.66-1.01-1
			c-0.36-0.35-0.72-0.71-1.1-1.08c-0.39-0.39-0.79-0.77-1.18-1.15c-0.78-0.75-1.56-1.51-2.34-2.26"/>
	</g>
	<g id="ARC_22_">
		<path class="st0" d="M202.67,201.28c-1.1-1.05-2.2-2.1-3.31-3.15"/>
	</g>
	<g id="ARC_21_">
		<path class="st0" d="M199.35,198.13c-1.19-1.12-2.38-2.24-3.58-3.35"/>
	</g>
	<g id="SPLINE_91_">
		<path class="st0" d="M195.78,194.78c-1.25-1.17-2.51-2.33-3.76-3.49"/>
	</g>
	<g id="ARC_20_">
		<path class="st0" d="M189.05,188.53c0.99,0.92,1.98,1.84,2.97,2.76"/>
	</g>
	<g id="ARC_19_">
		<path class="st0" d="M184.75,184.48c1.43,1.36,2.86,2.71,4.3,4.05"/>
	</g>
	<g id="ARC_18_">
		<path class="st0" d="M180.34,180.22c1.46,1.43,2.93,2.85,4.41,4.26"/>
	</g>
	<g id="SPLINE_90_">
		<path class="st0" d="M180.34,180.22c-0.67-0.66-1.34-1.33-2-2c-0.04-0.05-0.09-0.09-0.13-0.13c-0.67-0.68-1.34-1.37-2-2.06
			c-1.39-1.46-2.7-2.87-3.89-4.24c-1.21-1.39-2.3-2.71-3.24-3.98c-0.23-0.31-0.47-0.63-0.69-0.94"/>
	</g>
	<g id="ARC_17_">
		<path class="st0" d="M167.74,165.94c0.21,0.31,0.42,0.62,0.64,0.93"/>
	</g>
	<g id="ARC_16_">
		<path class="st0" d="M166.73,164.33c0.32,0.54,0.66,1.08,1.01,1.61"/>
	</g>
	<g id="ARC_15_">
		<path class="st0" d="M165.9,162.79c0.26,0.52,0.54,1.04,0.83,1.54"/>
	</g>
	<g id="SPLINE_82_">
		<path class="st0" d="M165.9,162.79c-0.27-0.53-0.5-1.08-0.71-1.64c-0.4-1.08-0.65-2.11-0.74-3.08c-0.02-0.23-0.03-0.46-0.03-0.69"
			/>
	</g>
	<g id="LINE_1_">
		<line class="st0" x1="164.42" y1="157.38" x2="164.42" y2="155.62"/>
	</g>
	<g id="SPLINE_81_">
		<path class="st0" d="M164.42,155.62c0-0.27,0.02-0.55,0.04-0.82c0.11-0.98,0.41-1.88,0.9-2.67c0.49-0.8,1.15-1.44,1.92-1.96
			c0.78-0.53,1.68-0.92,2.65-1.22c0.98-0.3,2.06-0.49,3.23-0.61c0.4-0.04,0.8-0.07,1.2-0.09"/>
	</g>
	<g id="SPLINE_34_">
		<path class="st0" d="M174.37,148.25c0.81-0.04,1.62-0.04,2.43-0.01c0.91,0.03,1.83,0.1,2.74,0.19c0.97,0.1,1.93,0.22,2.89,0.36
			c1.19,0.18,2.37,0.39,3.54,0.62c1.3,0.26,2.6,0.55,3.9,0.85c1.21,0.29,2.42,0.6,3.63,0.92c2.84,0.76,5.65,1.6,8.45,2.51
			c1.18,0.38,2.36,0.77,3.53,1.17c1.32,0.45,2.63,0.91,3.95,1.38c2.93,1.04,5.84,2.12,8.75,3.22c3.41,1.29,6.8,2.61,10.2,3.95
			c1.85,0.73,3.71,1.46,5.56,2.2c6.32,2.51,12.64,5.04,18.96,7.54c3.88,1.53,7.76,3.05,11.65,4.55c7.79,2.99,15.61,5.9,23.49,8.65
			c4.04,1.41,8.09,2.77,12.16,4.08c3.9,1.25,7.82,2.45,11.75,3.59c3.65,1.06,7.32,2.07,11.01,3.01c3.62,0.93,7.25,1.8,10.89,2.61
			c2.75,0.61,5.5,1.2,8.27,1.75c4.06,0.81,8.14,1.56,12.22,2.25c4.06,0.69,8.12,1.32,12.2,1.9c3.24,0.46,6.49,0.89,9.74,1.29
			c4.77,0.59,9.54,1.12,14.32,1.59"/>
	</g>
	<g id="SPLINE_11_">
		<path class="st0" d="M390.57,208.42c4.78,0.47,9.56,0.9,14.34,1.29c3.37,0.27,6.75,0.53,10.12,0.77
			c4.02,0.28,8.04,0.55,12.06,0.79c6.89,0.42,13.79,0.8,20.68,1.16c4.74,0.25,9.48,0.49,14.22,0.73c10.99,0.55,21.97,1.1,32.96,1.69
			c7.74,0.42,15.47,0.86,23.2,1.34c6.75,0.42,13.5,0.88,20.25,1.4c5.89,0.45,11.79,0.94,17.67,1.49c2.63,0.25,5.26,0.5,7.89,0.78
			c2.35,0.24,4.71,0.5,7.06,0.77c5.02,0.58,10.04,1.21,15.05,1.9c3.95,0.55,7.9,1.12,11.84,1.72c2.41,0.37,4.83,0.75,7.24,1.13
			c1.27,0.2,2.54,0.4,3.81,0.61c2.84,0.46,5.68,0.93,8.53,1.38c1.46,0.24,2.92,0.47,4.39,0.7c1.54,0.24,3.08,0.47,4.61,0.7
			c1.19,0.17,2.38,0.33,3.58,0.49c1.16,0.15,2.32,0.28,3.49,0.4c0.94,0.09,1.87,0.17,2.81,0.23c1.57,0.1,3.15,0.13,4.72,0.04
			c0.71-0.04,1.33-0.1,1.88-0.17c0.65-0.09,1.21-0.19,1.71-0.31c0.41-0.1,0.77-0.21,1.11-0.34c0.35-0.13,0.67-0.27,0.96-0.43
			c0.5-0.26,0.91-0.55,1.26-0.83c0.1-0.08,0.2-0.17,0.3-0.25c0.07-0.06,0.14-0.12,0.2-0.19c0.06-0.06,0.12-0.12,0.17-0.18
			c0.1-0.11,0.2-0.22,0.29-0.34c0.07-0.1,0.14-0.2,0.2-0.31c0.02-0.05,0.04-0.09,0.06-0.14c0.01-0.04,0.02-0.08,0.03-0.12"/>
	</g>
	<path class="st0" d="M427.06,216.71"/>
	<path class="st0" d="M302.06,252.63"/>
	<path class="st0" d="M497.6,244.37c-118.42,3.67-173.5-12.85-173.5-12.85s-100.92-14.3-115.79-24.75"/>
	<path class="st0" d="M492.7,244.06c0,0,114.6-8.87,132.44-11.59"/>
	<g id="SPLINE_10_">
		<path class="st0" d="M271.97,268.41c0,3.06-1.53,4.59-4.59,4.59c-3.06,0-4.59-1.53-4.59-4.59c0-3.06,1.53-4.59,4.59-4.59
			C270.44,263.82,271.97,265.35,271.97,268.41z"/>
	</g>
	<g id="SPLINE_9_">
		<path class="st0" d="M271.77,247.73c0,3.06-1.53,4.59-4.59,4.59c-3.06,0-4.59-1.53-4.59-4.59c0-3.06,1.53-4.59,4.59-4.59
			C270.24,243.14,271.77,244.67,271.77,247.73z"/>
	</g>
	<path class="st0" d="M283.5,269.22c0,0-6.48,4.53-11.48,7.59l-14.75,0.02c-3.81,0-6.9-3.4-6.9-7.6v-34.47c0-4.2,3.09-7.6,6.9-7.6
		h19.33c3.81,0,6.9,3.4,6.9,7.6V269.22z"/>
	<text transform="matrix(1 0 0 1 253.9409 236.4937)" class="st1 st2 st3">-1</text>
	<text transform="matrix(1 0 0 1 256.083 246.3867)" class="st1 st2 st3">0</text>
	<text transform="matrix(1 0 0 1 255.7773 256.2817)" class="st1 st2 st3">1</text>
	<text transform="matrix(1 0 0 1 256.083 266.1758)" class="st1 st2 st3">2</text>
	<text transform="matrix(1 0 0 1 270.4644 236.4937)" class="st1 st2 st3">-1</text>
	<text transform="matrix(1 0 0 1 272.6064 246.3867)" class="st1 st2 st3">0</text>
	<text transform="matrix(1 0 0 1 272.3013 256.2817)" class="st1 st2 st3">1</text>
	<text transform="matrix(1 0 0 1 272.6064 266.1758)" class="st1 st2 st3">2</text>
	<line class="st4" x1="250.35" y1="241" x2="259.53" y2="237.33"/>
	<line class="st4" x1="250.35" y1="251.1" x2="259.53" y2="247.43"/>
	<line class="st4" x1="250.35" y1="260.89" x2="259.53" y2="257.22"/>
	<line class="st4" x1="250.35" y1="270.99" x2="259.53" y2="267.32"/>
	<line class="st4" x1="283.4" y1="241" x2="274.22" y2="237.33"/>
	<line class="st4" x1="283.4" y1="251.1" x2="274.22" y2="247.43"/>
	<line class="st4" x1="283.4" y1="260.89" x2="274.22" y2="257.22"/>
	<line class="st4" x1="283.4" y1="270.99" x2="274.22" y2="267.32"/>
	<g>
		<g id="SPLINE_2_">
			<path class="st0" d="M563.59,283.72c0,3.06-1.53,4.59-4.59,4.59c-3.06,0-4.59-1.53-4.59-4.59c0-3.06,1.53-4.59,4.59-4.59
				C562.05,279.13,563.59,280.65,563.59,283.72z"/>
		</g>
		<g id="SPLINE_1_">
			<path class="st0" d="M563.39,263.03c0,3.06-1.53,4.59-4.59,4.59c-3.06,0-4.59-1.53-4.59-4.59c0-3.06,1.53-4.59,4.59-4.59
				C561.85,258.44,563.39,259.97,563.39,263.03z"/>
		</g>
		<path class="st0" d="M575.11,284.52c0,0,0.29,5.17-11.48,7.59l-14.75,0.02c-3.81,0-6.9-3.4-6.9-7.6v-34.47c0-4.2,3.09-7.6,6.9-7.6
			h19.33c3.81,0,6.91,3.4,6.91,7.6V284.52z"/>
		<text transform="matrix(1 0 0 1 546.5557 251.7949)" class="st1 st2 st3">-1</text>
		<text transform="matrix(1 0 0 1 548.6973 261.688)" class="st1 st2 st3">0</text>
		<text transform="matrix(1 0 0 1 548.3916 271.583)" class="st1 st2 st3">1</text>
		<text transform="matrix(1 0 0 1 548.6973 281.4766)" class="st1 st2 st3">2</text>
		<text transform="matrix(1 0 0 1 563.0801 251.7949)" class="st1 st2 st3">-1</text>
		<text transform="matrix(1 0 0 1 565.2207 261.688)" class="st1 st2 st3">0</text>
		<text transform="matrix(1 0 0 1 564.915 271.583)" class="st1 st2 st3">1</text>
		<text transform="matrix(1 0 0 1 565.2207 281.4766)" class="st1 st2 st3">2</text>
		<line class="st4" x1="541.97" y1="256.3" x2="551.15" y2="252.63"/>
		<line class="st4" x1="541.97" y1="266.4" x2="551.15" y2="262.73"/>
		<line class="st4" x1="541.97" y1="276.19" x2="551.15" y2="272.52"/>
		<line class="st4" x1="541.97" y1="286.29" x2="551.15" y2="282.62"/>
		<line class="st4" x1="575.01" y1="256.3" x2="565.84" y2="252.63"/>
		<line class="st4" x1="575.01" y1="266.4" x2="565.84" y2="262.73"/>
		<line class="st4" x1="575.01" y1="276.19" x2="565.84" y2="272.52"/>
		<line class="st4" x1="575.01" y1="286.29" x2="565.84" y2="282.62"/>
	</g>
	<g>
		<g>
			<line class="st5" x1="195.78" y1="222.3" x2="195.78" y2="322.03"/>
			<g>
				<polygon class="st6" points="188.71,319.96 195.78,332.2 202.84,319.96 				"/>
			</g>
		</g>
	</g>
	<g>
		<g>
			<line class="st5" x1="168.83" y1="295.95" x2="168.83" y2="196.23"/>
			<g>
				<polygon class="st6" points="175.9,198.29 168.83,186.06 161.77,198.29 				"/>
			</g>
		</g>
	</g>
	<g>
		<g>
			<line class="st5" x1="642.67" y1="279.17" x2="642.67" y2="327.57"/>
			<g>
				<polygon class="st6" points="635.6,325.51 642.67,337.75 649.74,325.51 				"/>
			</g>
		</g>
	</g>
	<g>
		<g>
			<line class="st5" x1="615.73" y1="318.42" x2="615.73" y2="270.01"/>
			<g>
				<polygon class="st6" points="622.8,272.08 615.73,259.84 608.66,272.08 				"/>
			</g>
		</g>
	</g>
</g>
<g id="Layer_2">
</g>
</svg>
