<?xml version="1.0" encoding="utf-8"?>
<!-- Generator: Adobe Illustrator 26.0.2, SVG Export Plug-In . SVG Version: 6.00 Build 0)  -->
<svg version="1.1" id="Layer_1" xmlns="http://www.w3.org/2000/svg" xmlns:xlink="http://www.w3.org/1999/xlink" x="0px" y="0px"
	 viewBox="0 0 293 207" style="enable-background:new 0 0 293 207;" xml:space="preserve">
<style type="text/css">
	.st0{fill:none;stroke:#010101;stroke-width:0.25;stroke-miterlimit:10;}
	.st1{fill:none;stroke:#000000;stroke-width:0.25;stroke-miterlimit:10;}
	.st2{font-family:'MyriadPro-It';}
	.st3{font-size:3.9494px;}
	.st4{font-size:0.7828px;}
	.st5{fill:#FFFFFF;stroke:#010101;stroke-width:0.25;stroke-miterlimit:10;}
	.st6{fill:none;}
	.st7{fill:#FFFFFF;}
	.st8{fill:none;stroke:#000000;stroke-width:0.25;stroke-dasharray:0.997,0.997;}
	.st9{font-family:'Lato-Black';}
	.st10{font-size:6px;}
	.st11{fill:none;stroke:#010101;stroke-width:0.25;stroke-miterlimit:10;stroke-dasharray:0.997,0.997;}
	.st12{fill:none;stroke:#010101;stroke-width:0.5669;stroke-linecap:round;stroke-linejoin:round;}
	.st13{fill:#010101;}
</style>
<g>
	<g>
		<g>
			<path class="st0" d="M240.63,156.79c-1.15,0-1.73,0.58-1.73,1.73s0.57,1.73,1.73,1.73c1.15,0,1.73-0.58,1.73-1.73
				C242.36,157.37,241.78,156.79,240.63,156.79z M231.99,156.79c-1.15,0-1.73,0.58-1.73,1.73s0.58,1.73,1.73,1.73
				c1.15,0,1.73-0.58,1.73-1.73S233.14,156.79,231.99,156.79z M223.35,156.79c-1.15,0-1.73,0.58-1.73,1.73s0.58,1.73,1.73,1.73
				c1.15,0,1.73-0.58,1.73-1.73C225.08,157.37,224.5,156.79,223.35,156.79z M214.71,156.8c-1.15,0-1.73,0.57-1.73,1.73
				c0,1.15,0.58,1.73,1.73,1.73s1.73-0.58,1.73-1.73C216.43,157.37,215.86,156.8,214.71,156.8z M206.06,156.8
				c-1.15,0-1.73,0.57-1.73,1.73c0,1.15,0.58,1.73,1.73,1.73s1.73-0.58,1.73-1.73C207.79,157.37,207.22,156.8,206.06,156.8z
				 M154.21,156.8c-1.15,0-1.73,0.57-1.73,1.73c0,1.15,0.58,1.73,1.73,1.73s1.73-0.58,1.73-1.73
				C155.94,157.37,155.37,156.8,154.21,156.8z M162.86,156.8c-1.15,0-1.73,0.57-1.73,1.73c0,1.15,0.57,1.73,1.73,1.73
				c1.15,0,1.73-0.58,1.73-1.73C164.59,157.37,164.01,156.8,162.86,156.8z M171.5,156.8c-1.15,0-1.73,0.57-1.73,1.73
				c0,1.15,0.58,1.73,1.73,1.73s1.73-0.58,1.73-1.73C173.23,157.37,172.65,156.8,171.5,156.8z M180.14,156.8
				c-1.15,0-1.73,0.57-1.73,1.73c0,1.15,0.57,1.73,1.73,1.73c1.15,0,1.73-0.58,1.73-1.73C181.87,157.37,181.29,156.8,180.14,156.8z
				 M188.78,156.8c-1.15,0-1.73,0.57-1.73,1.73c0,1.15,0.58,1.73,1.73,1.73s1.73-0.58,1.73-1.73
				C190.51,157.37,189.93,156.8,188.78,156.8z M111.01,156.8c-1.15,0-1.73,0.57-1.73,1.73c0,1.15,0.57,1.73,1.73,1.73
				c1.15,0,1.73-0.58,1.73-1.73C112.74,157.37,112.16,156.8,111.01,156.8z M119.65,156.8c-1.15,0-1.73,0.57-1.73,1.73
				c0,1.15,0.58,1.73,1.73,1.73s1.73-0.58,1.73-1.73C121.38,157.37,120.8,156.8,119.65,156.8z M128.29,156.8
				c-1.15,0-1.73,0.57-1.73,1.73c0,1.15,0.58,1.73,1.73,1.73s1.73-0.58,1.73-1.73C130.02,157.37,129.44,156.8,128.29,156.8z
				 M136.93,156.8c-1.15,0-1.73,0.57-1.73,1.73c0,1.15,0.58,1.73,1.73,1.73s1.73-0.58,1.73-1.73
				C138.66,157.37,138.08,156.8,136.93,156.8z M145.57,156.8c-1.15,0-1.73,0.57-1.73,1.73c0,1.15,0.58,1.73,1.73,1.73
				s1.73-0.58,1.73-1.73C147.3,157.37,146.73,156.8,145.57,156.8z M67.8,156.8c-1.15,0-1.73,0.57-1.73,1.73
				c0,1.15,0.58,1.73,1.73,1.73s1.73-0.58,1.73-1.73C69.53,157.37,68.95,156.8,67.8,156.8z M76.44,156.8
				c-1.15,0-1.73,0.57-1.73,1.73c0,1.15,0.58,1.73,1.73,1.73s1.73-0.58,1.73-1.73C78.17,157.37,77.59,156.8,76.44,156.8z
				 M85.08,156.8c-1.15,0-1.73,0.57-1.73,1.73c0,1.15,0.58,1.73,1.73,1.73s1.73-0.58,1.73-1.73
				C86.81,157.37,86.23,156.8,85.08,156.8z M93.72,156.8c-1.15,0-1.73,0.57-1.73,1.73c0,1.15,0.57,1.73,1.73,1.73
				c1.15,0,1.73-0.58,1.73-1.73C95.45,157.37,94.88,156.8,93.72,156.8z M102.37,156.8c-1.15,0-1.73,0.57-1.73,1.73
				c0,1.15,0.58,1.73,1.73,1.73s1.73-0.58,1.73-1.73C104.09,157.37,103.52,156.8,102.37,156.8z M249.27,162.67v-8.18 M33.23,154.49
				h216.04 M33.23,162.67v-8.18 M249.27,173.57v-10.9 M33.23,162.67h216.04 M33.23,173.57v-10.9 M249.27,173.64v-0.08 M33.23,173.57
				h216.04 M33.23,173.64v-0.08 M33.23,173.64h216.04"/>
		</g>
		<g>
			<path class="st0" d="M240.63,45.65c-1.15,0-1.73-0.57-1.73-1.73c0-1.15,0.58-1.73,1.73-1.73c1.15,0,1.73,0.57,1.73,1.73
				C242.36,45.08,241.79,45.65,240.63,45.65z M231.99,45.65c-1.15,0-1.73-0.57-1.73-1.73c0-1.15,0.58-1.73,1.73-1.73
				c1.15,0,1.73,0.57,1.73,1.73S233.14,45.65,231.99,45.65z M223.35,45.65c-1.15,0-1.73-0.57-1.73-1.73c0-1.15,0.57-1.73,1.73-1.73
				c1.15,0,1.73,0.57,1.73,1.73C225.08,45.08,224.5,45.65,223.35,45.65z M214.71,45.65c-1.15,0-1.73-0.57-1.73-1.73
				c0-1.15,0.58-1.73,1.73-1.73s1.73,0.57,1.73,1.73S215.86,45.65,214.71,45.65z M154.22,45.65c-1.15,0-1.73-0.57-1.73-1.73
				c0-1.15,0.58-1.73,1.73-1.73s1.73,0.57,1.73,1.73S155.37,45.65,154.22,45.65z M162.86,45.65c-1.15,0-1.73-0.57-1.73-1.73
				c0-1.15,0.58-1.73,1.73-1.73s1.73,0.57,1.73,1.73S164.01,45.65,162.86,45.65z M171.5,45.65c-1.15,0-1.73-0.57-1.73-1.73
				c0-1.15,0.57-1.73,1.73-1.73c1.15,0,1.73,0.57,1.73,1.73S172.65,45.65,171.5,45.65z M180.14,45.65c-1.15,0-1.73-0.57-1.73-1.73
				c0-1.15,0.58-1.73,1.73-1.73s1.73,0.57,1.73,1.73S181.29,45.65,180.14,45.65z M188.78,45.65c-1.15,0-1.73-0.57-1.73-1.73
				c0-1.15,0.58-1.73,1.73-1.73s1.73,0.57,1.73,1.73S189.93,45.65,188.78,45.65z M111.01,45.65c-1.15,0-1.73-0.57-1.73-1.73
				c0-1.15,0.58-1.73,1.73-1.73s1.73,0.57,1.73,1.73C112.74,45.08,112.16,45.65,111.01,45.65z M119.65,45.65
				c-1.15,0-1.73-0.57-1.73-1.73c0-1.15,0.58-1.73,1.73-1.73s1.73,0.57,1.73,1.73C121.38,45.08,120.8,45.65,119.65,45.65z
				 M128.29,45.65c-1.15,0-1.73-0.57-1.73-1.73c0-1.15,0.58-1.73,1.73-1.73s1.73,0.57,1.73,1.73
				C130.02,45.08,129.44,45.65,128.29,45.65z M136.93,45.65c-1.15,0-1.73-0.57-1.73-1.73c0-1.15,0.57-1.73,1.73-1.73
				c1.15,0,1.73,0.57,1.73,1.73C138.66,45.08,138.09,45.65,136.93,45.65z M145.58,45.65c-1.15,0-1.73-0.57-1.73-1.73
				c0-1.15,0.58-1.73,1.73-1.73s1.73,0.57,1.73,1.73C147.3,45.08,146.73,45.65,145.58,45.65z M67.8,45.65
				c-1.15,0-1.73-0.57-1.73-1.73c0-1.15,0.58-1.73,1.73-1.73s1.73,0.57,1.73,1.73C69.53,45.08,68.95,45.65,67.8,45.65z M76.44,45.65
				c-1.15,0-1.73-0.57-1.73-1.73c0-1.15,0.58-1.73,1.73-1.73s1.73,0.57,1.73,1.73C78.17,45.08,77.59,45.65,76.44,45.65z
				 M85.08,45.65c-1.15,0-1.73-0.57-1.73-1.73c0-1.15,0.58-1.73,1.73-1.73s1.73,0.57,1.73,1.73C86.81,45.08,86.24,45.65,85.08,45.65
				z M93.73,45.65c-1.15,0-1.73-0.57-1.73-1.73c0-1.15,0.57-1.73,1.73-1.73c1.15,0,1.73,0.57,1.73,1.73
				C95.45,45.08,94.88,45.65,93.73,45.65z M102.37,45.65c-1.15,0-1.73-0.57-1.73-1.73c0-1.15,0.58-1.73,1.73-1.73
				s1.73,0.57,1.73,1.73C104.09,45.08,103.52,45.65,102.37,45.65z M249.27,39.78v8.17 M33.23,47.95h216.04 M33.23,39.78v8.17
				 M249.27,28.88v10.9 M33.23,39.78h216.04 M33.23,28.88v10.9 M249.27,28.81v0.07 M33.23,28.88h216.04 M33.23,28.81v0.07
				 M33.23,28.81h216.04"/>
		</g>
	</g>
	<line class="st1" x1="247.47" y1="165.13" x2="247.47" y2="162.82"/>
	<line class="st1" x1="243.12" y1="165.13" x2="243.12" y2="162.82"/>
	<line class="st1" x1="238.78" y1="165.13" x2="238.78" y2="162.82"/>
	<line class="st1" x1="234.43" y1="165.13" x2="234.43" y2="162.82"/>
	<line class="st1" x1="230.08" y1="165.13" x2="230.08" y2="162.82"/>
	<line class="st1" x1="225.73" y1="165.13" x2="225.73" y2="162.82"/>
	<line class="st1" x1="221.38" y1="165.13" x2="221.38" y2="162.82"/>
	<line class="st1" x1="217.03" y1="165.13" x2="217.03" y2="162.82"/>
	<line class="st1" x1="212.69" y1="165.13" x2="212.69" y2="162.82"/>
	<line class="st1" x1="208.34" y1="165.13" x2="208.34" y2="162.82"/>
	<line class="st1" x1="203.99" y1="165.13" x2="203.99" y2="162.82"/>
	<line class="st1" x1="199.64" y1="165.13" x2="199.64" y2="162.82"/>
	<line class="st1" x1="195.29" y1="165.13" x2="195.29" y2="162.82"/>
	<path class="st1" d="M190.94,162.82"/>
	<line class="st1" x1="186.59" y1="165.13" x2="186.59" y2="162.82"/>
	<text transform="matrix(0 1 -1 0 245.748 166.8175)" class="st2 st3">0</text>
	<text transform="matrix(0 1 -1 0 241.502 166.8175)" class="st2 st3">1</text>
	<text transform="matrix(0 1 -1 0 237.2559 166.8175)" class="st2 st3">2</text>
	<text transform="matrix(0 1 -1 0 233.0098 166.8175)" class="st2 st3">3</text>
	<text transform="matrix(0 1 -1 0 228.7637 166.8175)" class="st2 st3">4</text>
	<text transform="matrix(0 1 -1 0 224.5195 166.8175)" class="st2 st3">5</text>
	<text transform="matrix(0 1 -1 0 219.418 166.8175)" class="st2 st3">6</text>
	<text transform="matrix(0 1 -1 0 215.1719 166.8175)" class="st2 st3">7</text>
	<text transform="matrix(0 1 -1 0 210.9277 166.8175)" class="st2 st3">8</text>
	<text transform="matrix(0 1 -1 0 206.6777 166.8175)" class="st2 st3">9</text>
	<text transform="matrix(0 1 -1 0 202.4316 165.8048)" class="st2 st3">10</text>
	<text transform="matrix(0 1 -1 0 198.1895 165.8048)" class="st2 st3">11</text>
	<text transform="matrix(0 1 -1 0 193.7441 165.8048)" class="st2 st3">12</text>
	<text transform="matrix(-1 0 0 -1 237.5225 158.2402)" class="st2 st4">7.5mm</text>
	<polygon points="235,159.01 234.07,158.47 235,157.93 	"/>
	<polygon points="237.77,157.93 238.71,158.47 237.77,159.01 	"/>
</g>
<path class="st0" d="M48.67,160.61c-0.67,0.67-1.49,1.01-2.44,1.01"/>
<path class="st0" d="M49.69,158.17c0,0.95-0.34,1.77-1.01,2.44"/>
<path class="st0" d="M43.79,160.61c-0.68-0.67-1.01-1.49-1.01-2.44"/>
<path class="st0" d="M46.23,161.62c-0.96,0-1.77-0.34-2.44-1.01"/>
<line class="st0" x1="53.29" y1="159.18" x2="53.32" y2="159.18"/>
<line class="st0" x1="52.61" y1="159.18" x2="53.29" y2="159.18"/>
<line class="st0" x1="39.2" y1="157.16" x2="39.85" y2="157.16"/>
<line class="st0" x1="39.14" y1="157.16" x2="39.17" y2="157.16"/>
<path class="st0" d="M38.74,157.56c0-0.11,0.04-0.21,0.12-0.28c0.08-0.08,0.18-0.12,0.29-0.12"/>
<line class="st0" x1="39.2" y1="159.18" x2="39.85" y2="159.18"/>
<line class="st0" x1="39.14" y1="159.18" x2="39.17" y2="159.18"/>
<path class="st0" d="M39.14,159.18c-0.11,0-0.21-0.04-0.29-0.12s-0.12-0.17-0.12-0.28"/>
<path class="st0" d="M207.11,160.61c-0.68,0.67-1.49,1.01-2.45,1.01"/>
<path class="st0" d="M208.12,158.17c0,0.95-0.34,1.77-1.01,2.44"/>
<path class="st0" d="M202.22,160.61c-0.67-0.67-1.01-1.49-1.01-2.44"/>
<path class="st0" d="M204.66,161.62c-0.95,0-1.77-0.34-2.44-1.01"/>
<path class="st0" d="M211.75,157.16c0.11,0,0.21,0.04,0.29,0.12c0.08,0.08,0.12,0.17,0.12,0.28"/>
<line class="st0" x1="211.73" y1="157.16" x2="211.75" y2="157.16"/>
<line class="st0" x1="211.04" y1="157.16" x2="211.73" y2="157.16"/>
<path class="st0" d="M212.15,158.77c0,0.11-0.04,0.21-0.12,0.28c-0.08,0.08-0.17,0.12-0.29,0.12"/>
<line class="st0" x1="211.73" y1="159.18" x2="211.75" y2="159.18"/>
<line class="st0" x1="211.04" y1="159.18" x2="211.73" y2="159.18"/>
<line class="st0" x1="197.63" y1="157.16" x2="198.28" y2="157.16"/>
<line class="st0" x1="197.58" y1="157.16" x2="197.6" y2="157.16"/>
<path class="st0" d="M197.17,157.56c0-0.11,0.04-0.21,0.12-0.28c0.08-0.08,0.17-0.12,0.29-0.12"/>
<line class="st0" x1="197.63" y1="159.18" x2="198.28" y2="159.18"/>
<line class="st0" x1="197.58" y1="159.18" x2="197.6" y2="159.18"/>
<path class="st0" d="M197.58,159.18c-0.11,0-0.21-0.04-0.29-0.12c-0.08-0.08-0.12-0.17-0.12-0.28"/>
<path class="st0" d="M55.19,161.8"/>
<path class="st0" d="M41.7,161.8"/>
<line class="st0" x1="41.7" y1="159.18" x2="41.71" y2="162.67"/>
<line class="st0" x1="49.54" y1="159.18" x2="52.61" y2="159.18"/>
<line class="st0" x1="39.85" y1="157.16" x2="42.92" y2="157.16"/>
<line class="st0" x1="39.17" y1="157.16" x2="39.2" y2="157.16"/>
<line class="st0" x1="39.85" y1="159.18" x2="42.92" y2="159.18"/>
<line class="st0" x1="39.17" y1="159.18" x2="39.2" y2="159.18"/>
<line class="st0" x1="38.74" y1="157.56" x2="38.74" y2="158.77"/>
<line class="st0" x1="207.97" y1="157.16" x2="211.04" y2="157.16"/>
<line class="st0" x1="207.97" y1="159.18" x2="211.04" y2="159.18"/>
<line class="st0" x1="198.28" y1="157.16" x2="201.35" y2="157.16"/>
<line class="st0" x1="197.6" y1="157.16" x2="197.63" y2="157.16"/>
<line class="st0" x1="198.28" y1="159.18" x2="201.35" y2="159.18"/>
<line class="st0" x1="212.15" y1="157.56" x2="212.15" y2="158.77"/>
<line class="st0" x1="197.17" y1="157.56" x2="197.17" y2="158.77"/>
<line class="st0" x1="194.69" y1="162.57" x2="212.23" y2="162.57"/>
<line class="st0" x1="49.54" y1="157.16" x2="52.89" y2="157.16"/>
<path class="st0" d="M53.65,158.99c-0.02,0.02-0.03,0.04-0.05,0.06c-0.08,0.08-0.17,0.12-0.29,0.12"/>
<g>
	<path class="st5" d="M154.94,184.87c1.1-0.13,2.19-0.27,3.29-0.42c1.08-0.15,2.15-0.32,3.22-0.5c0.76-0.13,1.52-0.27,2.28-0.42
		c1.04-0.21,2.07-0.43,3.1-0.68c1.05-0.25,2.1-0.53,3.14-0.83c0.93-0.27,1.85-0.56,2.77-0.88c0.47-0.16,0.95-0.34,1.41-0.52
		c0.68-0.26,1.36-0.54,2.03-0.83c0.9-0.4,1.79-0.82,2.66-1.28c0.8-0.42,1.58-0.86,2.34-1.33c0.21-0.13,0.41-0.26,0.62-0.39
		c0.51-0.33,1-0.67,1.49-1.02c0.74-0.53,1.45-1.09,2.14-1.68c0.75-0.64,1.48-1.31,2.18-2.02c0.71-0.72,1.38-1.46,2.02-2.24
		c0.66-0.8,1.29-1.63,1.87-2.48c0.2-0.29,0.39-0.57,0.57-0.86c0.3-0.46,0.58-0.92,0.86-1.39c0.57-0.96,1.09-1.94,1.58-2.95
		c0.51-1.05,0.98-2.12,1.41-3.2c0.46-1.15,0.87-2.32,1.24-3.5c0.23-0.72,0.44-1.45,0.64-2.18c0.18-0.64,0.34-1.29,0.5-1.94
		c0.22-0.91,0.42-1.83,0.6-2.75c0.16-0.78,0.3-1.57,0.43-2.35c0.04-0.23,0.08-0.47,0.12-0.7c0.08-0.52,0.17-1.04,0.24-1.56
		c0.17-1.13,0.32-2.26,0.45-3.39c0.15-1.29,0.29-2.59,0.42-3.88c0.03-0.29,0.05-0.57,0.08-0.86c0.02-0.27,0.05-0.53,0.07-0.8
		c0.05-0.53,0.09-1.06,0.14-1.6c0.09-1.1,0.17-2.2,0.25-3.29c0.1-1.41,0.19-2.82,0.27-4.22c0.06-0.96,0.11-1.92,0.16-2.87
		c0.04-0.84,0.08-1.68,0.12-2.52c0.02-0.58,0.05-1.17,0.07-1.75c0.02-0.6,0.05-1.2,0.07-1.8c0.02-0.62,0.04-1.24,0.06-1.86
		c0.04-1.26,0.07-2.53,0.09-3.79c0.02-1.21,0.04-2.41,0.06-3.62c0.01-0.86,0.02-1.72,0.02-2.58c0.01-1.54,0.01-3.09,0.01-4.64
		c0-1.53,0-3.06-0.01-4.6c0-0.86-0.01-1.73-0.02-2.59c-0.02-1.83-0.05-3.66-0.1-5.49c-0.03-0.96-0.05-1.92-0.09-2.88
		c-0.03-0.98-0.07-1.95-0.11-2.93c-0.04-0.99-0.08-1.98-0.13-2.97c-0.05-1-0.1-2-0.16-3c-0.06-1.12-0.13-2.23-0.2-3.35
		c-0.07-1.12-0.15-2.23-0.24-3.35c-0.07-0.87-0.14-1.75-0.21-2.62c-0.05-0.54-0.09-1.07-0.14-1.61c-0.1-1.02-0.2-2.04-0.31-3.06
		c-0.13-1.17-0.27-2.34-0.43-3.51c-0.13-0.94-0.26-1.89-0.41-2.83c-0.15-0.91-0.31-1.82-0.48-2.73c-0.1-0.54-0.21-1.08-0.33-1.61
		c-0.09-0.43-0.19-0.87-0.29-1.3c-0.12-0.52-0.25-1.04-0.38-1.56c-0.21-0.82-0.44-1.63-0.69-2.44c-0.23-0.75-0.47-1.5-0.73-2.23
		c-0.27-0.76-0.56-1.52-0.86-2.27c-0.29-0.72-0.61-1.44-0.94-2.15c-0.31-0.67-0.64-1.33-0.99-1.98c-0.35-0.65-0.71-1.3-1.1-1.93
		c-0.35-0.59-0.72-1.16-1.11-1.72c-0.38-0.56-0.77-1.1-1.18-1.64c-0.35-0.45-0.7-0.89-1.07-1.33c-0.83-0.98-1.72-1.91-2.66-2.79
		c-0.46-0.43-0.93-0.85-1.42-1.26s-0.99-0.81-1.5-1.19c-0.56-0.42-1.13-0.81-1.71-1.2c-1.08-0.71-2.2-1.36-3.34-1.96
		c-0.69-0.36-1.39-0.7-2.1-1.01c-0.43-0.19-0.86-0.38-1.3-0.56c-0.59-0.25-1.19-0.48-1.79-0.7c-1.22-0.45-2.45-0.85-3.69-1.21
		c-0.73-0.21-1.46-0.41-2.2-0.6c-0.95-0.24-1.9-0.46-2.85-0.66c-1.42-0.3-2.86-0.56-4.29-0.79c-1.47-0.24-2.95-0.44-4.43-0.63
		c-1.46-0.18-2.92-0.34-4.38-0.48c-1.45-0.14-2.9-0.26-4.35-0.38c-1.46-0.12-2.93-0.22-4.4-0.32c-0.99-0.07-1.97-0.13-2.96-0.2
		c-0.99-0.07-1.97-0.13-2.96-0.2c-0.74-0.05-1.48-0.1-2.22-0.15s-1.48-0.1-2.22-0.15c-1.8-0.11-3.6-0.22-5.4-0.32
		c-1.43-0.08-2.87-0.15-4.3-0.2c-1.13-0.05-2.26-0.08-3.39-0.12c-1.29-0.04-2.57-0.06-3.85-0.07c-1.47-0.01-2.94-0.01-4.41,0.01
		c-1.09,0.02-2.18,0.04-3.27,0.08c-1.68,0.06-3.36,0.14-5.04,0.25c-0.98,0.06-1.95,0.14-2.93,0.22c-0.93,0.08-1.86,0.17-2.79,0.27
		c-1.43,0.15-2.85,0.33-4.27,0.53c-0.45,0.07-0.91,0.13-1.36,0.2c-0.44,0.07-0.89,0.14-1.33,0.22c-0.88,0.15-1.77,0.31-2.64,0.49
		c-0.89,0.18-1.77,0.38-2.65,0.59c-0.91,0.22-1.82,0.46-2.72,0.71c-0.91,0.26-1.82,0.54-2.72,0.84c-0.61,0.21-1.21,0.42-1.82,0.65
		c-0.96,0.36-1.91,0.75-2.84,1.17c-0.83,0.37-1.64,0.77-2.45,1.18c-0.8,0.42-1.59,0.86-2.37,1.33c-0.89,0.54-1.77,1.12-2.61,1.73
		c-0.91,0.65-1.78,1.34-2.63,2.07c-0.66,0.57-1.3,1.16-1.91,1.77c-0.34,0.34-0.67,0.68-0.99,1.02c-0.33,0.36-0.66,0.72-0.98,1.1
		c-0.32,0.38-0.64,0.76-0.94,1.15c-0.31,0.39-0.61,0.79-0.91,1.2c-0.59,0.81-1.15,1.63-1.69,2.48s-1.04,1.71-1.53,2.59
		c-0.24,0.44-0.47,0.88-0.7,1.32c-0.43,0.84-0.84,1.69-1.23,2.55c-0.42,0.95-0.82,1.91-1.2,2.88c-0.37,0.97-0.72,1.95-1.04,2.93
		c-0.64,1.97-1.19,3.98-1.63,6.01c-0.24,1.12-0.45,2.24-0.63,3.36c-0.15,1-0.28,2-0.39,3c-0.05,0.51-0.09,1.01-0.13,1.52
		c-0.03,0.5-0.06,1-0.08,1.5c-0.04,0.98-0.05,1.97-0.02,2.95c0.02,0.91,0.07,1.81,0.16,2.72c0.08,0.87,0.19,1.74,0.33,2.61
		c0.11,0.65,0.23,1.29,0.38,1.93c0.1,0.43,0.21,0.85,0.32,1.27s0.24,0.83,0.37,1.24c0.25,0.77,0.54,1.54,0.85,2.29
		c0.21,0.5,0.43,1,0.67,1.5c0.35,0.73,0.71,1.45,1.11,2.15c0.37,0.66,0.75,1.3,1.14,1.94c0.53,0.85,1.08,1.68,1.64,2.5
		c0.27,0.39,0.54,0.78,0.82,1.17c0.15,0.21,0.31,0.43,0.46,0.64s0.31,0.42,0.46,0.64c0.18,0.25,0.37,0.51,0.56,0.76
		c0.21,0.29,0.42,0.57,0.63,0.86c0.09,0.12,0.18,0.25,0.27,0.37c0.11,0.14,0.21,0.29,0.31,0.43c0.16,0.22,0.32,0.44,0.47,0.66
		c0.18,0.25,0.36,0.51,0.54,0.76c0.21,0.3,0.41,0.6,0.61,0.91c0.2,0.3,0.4,0.61,0.59,0.92c0.13,0.21,0.25,0.42,0.38,0.63
		c0.07,0.12,0.14,0.25,0.21,0.37c0.03,0.06,0.07,0.12,0.1,0.19c0.02,0.05,0.05,0.09,0.07,0.13c0.16,0.29,0.31,0.59,0.44,0.89
		c0.13,0.29,0.26,0.58,0.37,0.87c0.09,0.24,0.18,0.48,0.25,0.73c0.08,0.24,0.14,0.49,0.2,0.74c0.07,0.28,0.12,0.56,0.16,0.85
		c0.03,0.19,0.05,0.38,0.06,0.57c0.02,0.25,0.03,0.51,0.03,0.77c0,0.35-0.02,0.69-0.07,1.04c-0.02,0.15-0.04,0.3-0.07,0.45
		c-0.02,0.13-0.05,0.26-0.08,0.39c-0.07,0.31-0.15,0.61-0.24,0.91s-0.2,0.6-0.32,0.89c-0.13,0.34-0.28,0.67-0.44,1
		c-0.17,0.35-0.35,0.69-0.54,1.03c-0.22,0.39-0.44,0.77-0.68,1.14c-0.11,0.17-0.22,0.34-0.33,0.51c-0.17,0.26-0.35,0.53-0.53,0.79
		c-0.11,0.16-0.22,0.32-0.33,0.48c-0.06,0.09-0.13,0.18-0.19,0.27c-0.08,0.11-0.15,0.21-0.23,0.32c-0.15,0.21-0.3,0.43-0.46,0.64
		c-0.16,0.21-0.31,0.43-0.47,0.64c-0.33,0.45-0.66,0.9-0.98,1.34c-0.16,0.22-0.32,0.43-0.47,0.65c-0.16,0.21-0.31,0.42-0.46,0.64
		c-0.18,0.24-0.35,0.49-0.52,0.73c-0.58,0.82-1.14,1.64-1.69,2.48c-0.42,0.65-0.82,1.3-1.21,1.96c-0.45,0.77-0.88,1.55-1.28,2.35
		c-0.16,0.33-0.32,0.66-0.48,1c-0.31,0.68-0.6,1.37-0.87,2.07c-0.17,0.46-0.34,0.93-0.49,1.4c-0.09,0.29-0.18,0.58-0.27,0.87
		c-0.11,0.38-0.21,0.76-0.31,1.15c-0.19,0.76-0.35,1.54-0.48,2.32c-0.14,0.82-0.25,1.65-0.33,2.48c-0.04,0.43-0.07,0.85-0.1,1.28
		c-0.05,0.79-0.08,1.58-0.08,2.37c0,0.46,0,0.92,0.01,1.39c0.02,0.92,0.07,1.85,0.14,2.77s0.17,1.84,0.29,2.75
		c0.09,0.7,0.2,1.39,0.31,2.08c0.16,0.94,0.34,1.88,0.54,2.81c0.21,0.94,0.44,1.88,0.69,2.81c0.18,0.65,0.36,1.31,0.56,1.96
		c0.29,0.93,0.59,1.85,0.92,2.76c0.33,0.91,0.68,1.82,1.05,2.71c0.38,0.9,0.77,1.79,1.2,2.68c0.42,0.88,0.87,1.75,1.34,2.61
		c0.4,0.73,0.81,1.44,1.25,2.14c0.51,0.83,1.05,1.64,1.62,2.44c0.3,0.42,0.61,0.84,0.92,1.25c0.19,0.25,0.39,0.5,0.59,0.75
		c0.29,0.36,0.59,0.72,0.9,1.07c0.58,0.67,1.19,1.31,1.82,1.93c0.62,0.61,1.26,1.2,1.92,1.77c0.33,0.28,0.66,0.56,0.99,0.82
		c0.66,0.52,1.33,1.03,2.02,1.51c0.69,0.48,1.41,0.95,2.13,1.39c0.72,0.44,1.46,0.86,2.2,1.25s1.5,0.77,2.27,1.12
		c0.77,0.35,1.54,0.68,2.33,0.99c0.78,0.31,1.58,0.6,2.38,0.88c0.56,0.19,1.12,0.38,1.69,0.55c0.81,0.25,1.62,0.49,2.45,0.7
		c0.82,0.22,1.64,0.46,2.48,0.61C125.59,191.92,154.94,184.87,154.94,184.87z"/>
	<path class="st5" d="M198.2,100.51c0-1.88,0-3.75-0.01-5.63c0-0.87-0.01-1.74-0.02-2.61c-0.01-1.73-0.04-3.47-0.07-5.2
		c-0.03-1.43-0.06-2.87-0.11-4.3c-0.03-0.87-0.06-1.74-0.09-2.6c-0.06-1.5-0.13-3.01-0.22-4.51c-0.1-1.74-0.22-3.48-0.36-5.21
		c-0.07-0.87-0.15-1.73-0.23-2.6c-0.08-0.87-0.17-1.74-0.27-2.61s-0.2-1.74-0.32-2.61c-0.11-0.87-0.24-1.73-0.37-2.59
		c-0.13-0.86-0.28-1.73-0.43-2.58c-0.16-0.86-0.32-1.73-0.51-2.58c-0.09-0.43-0.19-0.86-0.28-1.29c-0.1-0.43-0.2-0.85-0.31-1.28
		c-0.21-0.85-0.44-1.7-0.69-2.54c-0.25-0.84-0.52-1.68-0.81-2.51c-0.29-0.83-0.6-1.66-0.94-2.48s-0.7-1.63-1.08-2.42
		c-0.39-0.8-0.8-1.58-1.23-2.35c-0.33-0.59-0.68-1.17-1.05-1.73c-0.08-0.13-0.17-0.26-0.25-0.39c-0.3-0.46-0.61-0.91-0.94-1.35
		c-0.26-0.36-0.53-0.71-0.8-1.05c-0.27-0.35-0.56-0.69-0.85-1.03c-0.58-0.67-1.19-1.33-1.83-1.95s-1.3-1.23-1.98-1.79
		c-0.68-0.57-1.39-1.11-2.12-1.62c-0.72-0.5-1.46-0.98-2.21-1.43c-0.77-0.45-1.55-0.88-2.34-1.28c-0.79-0.4-1.6-0.76-2.42-1.11
		c-0.82-0.34-1.64-0.66-2.48-0.95c-0.83-0.29-1.68-0.57-2.52-0.82c-0.85-0.25-1.7-0.48-2.55-0.69s-1.71-0.41-2.57-0.59
		s-1.72-0.35-2.58-0.5s-1.72-0.29-2.59-0.42c-0.87-0.13-1.74-0.25-2.6-0.36c-0.87-0.11-1.74-0.21-2.61-0.31
		c-0.87-0.09-1.73-0.18-2.6-0.26c-1.73-0.16-3.47-0.3-5.21-0.43c-0.87-0.06-1.74-0.12-2.61-0.18c-0.57-0.04-1.15-0.08-1.73-0.12
		c-1-0.07-1.99-0.13-2.99-0.19c-2.86-0.18-5.73-0.35-8.6-0.49c-1.74-0.08-3.47-0.15-5.21-0.2s-3.48-0.09-5.21-0.1
		c-1.73-0.01-3.47,0-5.2,0.03c-1.73,0.04-3.46,0.1-5.18,0.19c-1.3,0.07-2.59,0.16-3.88,0.26c-0.85,0.07-1.71,0.15-2.57,0.24
		c-1.53,0.16-3.06,0.34-4.59,0.56c-0.83,0.12-1.67,0.25-2.5,0.4c-1.2,0.21-2.39,0.44-3.58,0.7c-0.81,0.18-1.62,0.37-2.42,0.58
		c-0.8,0.21-1.59,0.43-2.38,0.67c-0.79,0.24-1.57,0.49-2.34,0.76c-0.75,0.26-1.49,0.54-2.22,0.84c-0.75,0.31-1.5,0.63-2.24,0.98
		c-1.05,0.49-2.08,1.03-3.08,1.6c-0.71,0.41-1.41,0.84-2.09,1.3c-0.69,0.47-1.37,0.95-2.03,1.47c-0.67,0.52-1.32,1.06-1.94,1.63
		c-0.63,0.57-1.24,1.17-1.82,1.79c-0.3,0.32-0.6,0.65-0.89,0.99c-0.28,0.33-0.56,0.67-0.83,1.01c-0.75,0.94-1.45,1.93-2.1,2.94
		c-0.48,0.74-0.93,1.5-1.35,2.28s-0.83,1.57-1.2,2.37c-0.38,0.8-0.73,1.61-1.06,2.44c-0.33,0.82-0.63,1.65-0.91,2.48
		c-0.28,0.83-0.54,1.68-0.78,2.52c-0.24,0.85-0.45,1.7-0.64,2.57c-0.19,0.86-0.36,1.72-0.51,2.58c-0.14,0.86-0.27,1.73-0.37,2.59
		c-0.1,0.87-0.18,1.74-0.23,2.6c-0.06,0.86-0.09,1.73-0.09,2.59c-0.01,0.86,0.01,1.72,0.05,2.58c0.04,0.85,0.11,1.7,0.2,2.54
		c0.05,0.5,0.12,1,0.19,1.49c0.06,0.42,0.13,0.83,0.2,1.24c0.07,0.41,0.15,0.82,0.24,1.23c0.09,0.4,0.18,0.81,0.28,1.21
		c0.2,0.79,0.43,1.57,0.67,2.35c0.17,0.52,0.34,1.03,0.53,1.54c0.27,0.74,0.56,1.48,0.87,2.22c0.3,0.72,0.62,1.44,0.95,2.15
		c0.33,0.71,0.67,1.41,1.02,2.11c0.35,0.69,0.7,1.38,1.06,2.06c0.18,0.34,0.36,0.68,0.54,1.02c0.29,0.55,0.59,1.11,0.89,1.66
		c0.21,0.4,0.43,0.8,0.64,1.2c0.18,0.34,0.36,0.69,0.54,1.03s0.35,0.69,0.53,1.04c0.17,0.35,0.34,0.7,0.51,1.05
		c0.17,0.35,0.33,0.71,0.49,1.07c0.16,0.36,0.31,0.73,0.46,1.09c0.17,0.42,0.33,0.85,0.48,1.28c0.16,0.47,0.31,0.95,0.43,1.43
		c0.1,0.39,0.19,0.78,0.26,1.18c0.04,0.23,0.07,0.45,0.1,0.68c0.03,0.28,0.06,0.55,0.07,0.83c0.01,0.2,0.02,0.4,0.02,0.6
		c0,0.48-0.03,0.96-0.09,1.44c-0.03,0.23-0.06,0.46-0.1,0.69c-0.07,0.4-0.16,0.79-0.26,1.18c-0.12,0.48-0.27,0.95-0.43,1.42
		c-0.15,0.43-0.31,0.86-0.48,1.29c-0.15,0.37-0.3,0.73-0.46,1.09c-0.16,0.36-0.32,0.71-0.49,1.07c-0.17,0.35-0.34,0.7-0.51,1.05
		c-0.17,0.35-0.35,0.69-0.53,1.04c-0.39,0.75-0.79,1.5-1.19,2.25c-0.29,0.54-0.58,1.08-0.86,1.62c-0.09,0.17-0.18,0.34-0.27,0.51
		c-0.18,0.34-0.36,0.68-0.54,1.03c-0.41,0.78-0.81,1.57-1.19,2.36c-0.34,0.7-0.67,1.4-0.99,2.12s-0.63,1.45-0.93,2.19
		c-0.29,0.73-0.56,1.46-0.81,2.2c-0.13,0.38-0.26,0.77-0.37,1.16c-0.24,0.78-0.46,1.57-0.65,2.37c-0.05,0.2-0.1,0.4-0.14,0.61
		c-0.04,0.2-0.09,0.41-0.13,0.61c-0.08,0.41-0.16,0.82-0.23,1.23c-0.18,1.07-0.31,2.15-0.41,3.24c-0.07,0.85-0.12,1.7-0.14,2.55
		c-0.02,0.86-0.02,1.73,0.01,2.59c0.02,0.87,0.07,1.73,0.15,2.6c0.07,0.87,0.17,1.74,0.29,2.6c0.12,0.87,0.26,1.73,0.42,2.6
		c0.16,0.86,0.35,1.72,0.55,2.57c0.21,0.85,0.44,1.7,0.69,2.55s0.53,1.69,0.83,2.52s0.62,1.66,0.97,2.47s0.72,1.62,1.11,2.41
		c0.4,0.79,0.82,1.57,1.26,2.34c0.45,0.76,0.91,1.51,1.41,2.24c0.58,0.85,1.2,1.68,1.85,2.48c0.27,0.33,0.56,0.66,0.84,0.99
		c0.4,0.45,0.82,0.89,1.24,1.32c0.6,0.6,1.23,1.18,1.88,1.74c0.64,0.54,1.29,1.06,1.97,1.56c0.67,0.49,1.35,0.96,2.06,1.4
		c0.69,0.44,1.4,0.86,2.12,1.25s1.45,0.76,2.19,1.11c0.74,0.35,1.48,0.67,2.24,0.98c0.76,0.31,1.52,0.6,2.29,0.87
		c0.77,0.27,1.55,0.53,2.34,0.76c0.79,0.24,1.58,0.46,2.38,0.67c0.8,0.21,1.61,0.4,2.42,0.58c1.19,0.26,2.38,0.5,3.58,0.7
		c0.83,0.15,1.67,0.28,2.5,0.4c0.78,0.11,1.56,0.22,2.34,0.31c0.42,0.05,0.84,0.1,1.27,0.15c0.33,0.04,0.65,0.07,0.98,0.1
		c0.85,0.09,1.71,0.17,2.57,0.24c1.29,0.11,2.59,0.19,3.88,0.26c1.73,0.09,3.45,0.16,5.18,0.19c1.73,0.04,3.47,0.04,5.2,0.03
		c1.74-0.01,3.48-0.05,5.21-0.1c1.74-0.05,3.48-0.12,5.21-0.21c2.87-0.13,5.74-0.3,8.6-0.49c0.43-0.03,0.87-0.05,1.3-0.08
		c0.56-0.04,1.13-0.07,1.69-0.11c0.57-0.04,1.15-0.08,1.73-0.11c0.87-0.06,1.74-0.12,2.61-0.18c1.74-0.13,3.47-0.27,5.21-0.43
		c0.87-0.08,1.73-0.17,2.6-0.26c0.87-0.09,1.74-0.2,2.61-0.3c1.74-0.22,3.47-0.48,5.19-0.78c0.86-0.15,1.72-0.32,2.58-0.5
		s1.72-0.38,2.57-0.59c0.86-0.21,1.71-0.44,2.55-0.69c0.85-0.25,1.69-0.52,2.52-0.82c0.83-0.29,1.66-0.61,2.48-0.95
		c0.82-0.34,1.63-0.71,2.42-1.11s1.58-0.82,2.34-1.27s1.51-0.93,2.24-1.45c0.73-0.51,1.43-1.05,2.12-1.62
		c0.55-0.46,1.08-0.93,1.59-1.42c0.65-0.62,1.26-1.26,1.85-1.92c0.59-0.66,1.15-1.35,1.69-2.06c0.39-0.52,0.77-1.05,1.13-1.59
		c0.31-0.46,0.61-0.93,0.89-1.4c0.46-0.76,0.89-1.54,1.3-2.32c0.4-0.79,0.78-1.59,1.14-2.4c0.35-0.81,0.68-1.63,0.99-2.46
		c0.31-0.83,0.6-1.66,0.86-2.5s0.51-1.69,0.74-2.54c0.23-0.85,0.44-1.7,0.63-2.56c0.11-0.49,0.21-0.97,0.31-1.46
		c0.09-0.43,0.17-0.86,0.26-1.29c0.21-1.13,0.41-2.26,0.58-3.4c0.13-0.86,0.26-1.73,0.37-2.59c0.11-0.87,0.22-1.74,0.32-2.6
		c0.1-0.87,0.19-1.74,0.27-2.61s0.16-1.73,0.23-2.6c0.14-1.74,0.26-3.47,0.36-5.21c0.09-1.5,0.16-3.01,0.22-4.51
		c0.09-2.3,0.16-4.6,0.2-6.9c0.03-1.73,0.06-3.47,0.07-5.2c0.01-0.87,0.01-1.74,0.02-2.61C198.2,104.26,198.2,102.38,198.2,100.51z"
		/>
	<path class="st0" d="M53.31,41.81c0.15,0,0.26,0.06,0.33,0.19"/>
	<path class="st0" d="M43.79,155.73c0.67-0.67,1.49-1.01,2.44-1.01"/>
	<path class="st0" d="M42.77,158.17c0-0.95,0.34-1.77,1.01-2.44"/>
	<path class="st0" d="M48.67,155.73c0.68,0.67,1.01,1.49,1.01,2.44"/>
	<path class="st0" d="M46.23,154.72c0.96,0,1.77,0.34,2.44,1.01"/>
	<path class="st0" d="M43.79,45.27c0.67,0.67,1.49,1.01,2.44,1.01"/>
	<path class="st0" d="M42.77,42.83c0,0.95,0.34,1.77,1.01,2.44"/>
	<path class="st0" d="M48.67,45.27c0.68-0.67,1.01-1.49,1.01-2.44"/>
	<path class="st0" d="M46.23,46.28c0.96,0,1.77-0.34,2.44-1.01"/>
	<path class="st0" d="M48.67,40.39c-0.67-0.67-1.49-1.01-2.44-1.01"/>
	<path class="st0" d="M49.69,42.83c0-0.96-0.34-1.77-1.01-2.44"/>
	<path class="st0" d="M43.79,40.39c-0.68,0.67-1.01,1.49-1.01,2.44"/>
	<path class="st0" d="M46.23,39.38c-0.96,0-1.77,0.34-2.44,1.01"/>
	<line class="st0" x1="53.29" y1="41.82" x2="53.32" y2="41.82"/>
	<line class="st0" x1="52.61" y1="41.82" x2="53.29" y2="41.82"/>
	<line class="st0" x1="39.2" y1="43.84" x2="39.85" y2="43.84"/>
	<line class="st0" x1="39.14" y1="43.84" x2="39.17" y2="43.84"/>
	<path class="st0" d="M39.14,43.84c-0.11,0-0.21-0.04-0.29-0.12c-0.08-0.08-0.12-0.17-0.12-0.28"/>
	<line class="st0" x1="39.2" y1="41.82" x2="39.85" y2="41.82"/>
	<line class="st0" x1="39.14" y1="41.82" x2="39.17" y2="41.82"/>
	<path class="st0" d="M38.74,42.22c0-0.11,0.04-0.21,0.12-0.29s0.18-0.12,0.29-0.12"/>
	<path class="st5" d="M202.22,45.27c0.68,0.67,1.49,1.01,2.44,1.01"/>
	<path class="st5" d="M201.2,42.83c0,0.95,0.34,1.77,1.01,2.44"/>
	<path class="st5" d="M207.11,45.27c0.67-0.67,1.01-1.49,1.01-2.44"/>
	<path class="st5" d="M204.66,46.28c0.96,0,1.77-0.34,2.45-1.01"/>
	<path class="st5" d="M207.11,40.39c-0.68-0.67-1.49-1.01-2.45-1.01"/>
	<path class="st5" d="M208.12,42.83c0-0.96-0.34-1.77-1.01-2.44"/>
	<path class="st5" d="M202.22,40.39c-0.67,0.67-1.01,1.49-1.01,2.44"/>
	<path class="st5" d="M204.66,39.38c-0.95,0-1.77,0.34-2.44,1.01"/>
	<path class="st0" d="M212.15,43.43c0,0.11-0.04,0.21-0.12,0.28c-0.08,0.08-0.17,0.12-0.29,0.12"/>
	<line class="st0" x1="211.73" y1="43.84" x2="211.75" y2="43.84"/>
	<line class="st0" x1="211.04" y1="43.84" x2="211.73" y2="43.84"/>
	<path class="st0" d="M211.75,41.82c0.11,0,0.21,0.04,0.29,0.12c0.08,0.08,0.12,0.17,0.12,0.29"/>
	<line class="st0" x1="211.73" y1="41.82" x2="211.75" y2="41.82"/>
	<line class="st0" x1="211.04" y1="41.82" x2="211.73" y2="41.82"/>
	<line class="st0" x1="197.63" y1="43.84" x2="198.28" y2="43.84"/>
	<line class="st0" x1="197.58" y1="43.84" x2="197.6" y2="43.84"/>
	<path class="st0" d="M197.58,43.84c-0.11,0-0.21-0.04-0.29-0.12c-0.08-0.08-0.12-0.17-0.12-0.28"/>
	<line class="st0" x1="197.63" y1="41.82" x2="198.28" y2="41.82"/>
	<line class="st0" x1="197.58" y1="41.82" x2="197.6" y2="41.82"/>
	<path class="st0" d="M197.17,42.22c0-0.11,0.04-0.21,0.12-0.29s0.17-0.12,0.29-0.12"/>
	<path class="st0" d="M202.22,155.73c0.68-0.67,1.49-1.01,2.44-1.01"/>
	<path class="st0" d="M201.2,158.17c0-0.95,0.34-1.77,1.01-2.44"/>
	<path class="st0" d="M207.11,155.73c0.67,0.67,1.01,1.49,1.01,2.44"/>
	<path class="st0" d="M204.66,154.72c0.96,0,1.77,0.34,2.45,1.01"/>
	<line class="st0" x1="212.3" y1="154.66" x2="212.23" y2="162.56"/>
	<line class="st0" x1="41.65" y1="154.58" x2="41.7" y2="157.16"/>
	<line class="st0" x1="212.23" y1="47.83" x2="212.23" y2="39.86"/>
	<path class="st0" d="M55.19,39.2"/>
	<path class="st0" d="M41.74,40.05"/>
	<line class="st0" x1="41.7" y1="41.82" x2="41.74" y2="39.8"/>
	<line class="st0" x1="41.7" y1="47.83" x2="41.7" y2="43.84"/>
	<line class="st0" x1="41.7" y1="47.83" x2="51.62" y2="47.83"/>
	<line class="st0" x1="49.54" y1="41.82" x2="52.61" y2="41.82"/>
	<line class="st0" x1="39.85" y1="43.84" x2="42.92" y2="43.84"/>
	<line class="st0" x1="39.17" y1="43.84" x2="39.2" y2="43.84"/>
	<line class="st0" x1="39.85" y1="41.82" x2="42.92" y2="41.82"/>
	<line class="st0" x1="39.17" y1="41.82" x2="39.2" y2="41.82"/>
	<line class="st0" x1="38.74" y1="43.43" x2="38.74" y2="42.22"/>
	<line class="st0" x1="207.97" y1="43.84" x2="211.04" y2="43.84"/>
	<line class="st0" x1="207.97" y1="41.82" x2="211.04" y2="41.82"/>
	<line class="st0" x1="198.28" y1="43.84" x2="201.35" y2="43.84"/>
	<line class="st0" x1="197.6" y1="43.84" x2="197.63" y2="43.84"/>
	<line class="st0" x1="198.28" y1="41.82" x2="201.35" y2="41.82"/>
	<line class="st0" x1="197.6" y1="41.82" x2="197.63" y2="41.82"/>
	<line class="st0" x1="212.15" y1="43.43" x2="212.15" y2="42.22"/>
	<line class="st0" x1="197.17" y1="43.43" x2="197.17" y2="42.22"/>
	<line class="st0" x1="197.84" y1="47.83" x2="212.23" y2="47.83"/>
	<line class="st0" x1="194.69" y1="39.86" x2="212.23" y2="39.86"/>
	<line class="st0" x1="49.54" y1="43.84" x2="52.89" y2="43.84"/>
	<polyline class="st6" points="212.5,188.7 212.5,14.73 -190.64,13.52 	"/>
	<path class="st7" d="M208,42.78c0,1.8-1.46,3.27-3.27,3.27c-1.8,0-3.27-1.46-3.27-3.27c0-1.8,1.46-3.27,3.27-3.27
		C206.54,39.52,208,40.98,208,42.78z"/>
</g>
<path class="st7" d="M207.89,158.08c0,1.82-1.47,3.29-3.29,3.29s-3.29-1.47-3.29-3.29c0-1.82,1.47-3.29,3.29-3.29
	S207.89,156.27,207.89,158.08z"/>
<path class="st7" d="M49.55,42.81c0,1.84-1.49,3.33-3.33,3.33s-3.33-1.49-3.33-3.33s1.49-3.33,3.33-3.33S49.55,40.97,49.55,42.81z"
	/>
<line class="st8" x1="232.73" y1="160.8" x2="232.73" y2="176.87"/>
<line class="st8" x1="241.25" y1="160.8" x2="241.25" y2="176.43"/>
<text transform="matrix(1 0 0 1 227.4297 182.005)" class="st9 st10">75MM</text>
<circle class="st11" cx="192.17" cy="42.97" r="2"/>
<circle class="st11" cx="192.17" cy="158.3" r="2"/>
<circle class="st11" cx="58.41" cy="42.97" r="2"/>
<circle class="st11" cx="58.41" cy="158.3" r="2"/>
<line class="st8" x1="193.88" y1="21.42" x2="193.88" y2="36.09"/>
<line class="st8" x1="205.39" y1="26.92" x2="205.39" y2="36.09"/>
<text transform="matrix(1 0 0 1 192.6562 25.6427)" class="st9 st10">2.5 cm</text>
<g>
	<g>
		<line class="st12" x1="281.57" y1="105.98" x2="215.79" y2="105.98"/>
		<g>
			<polygon class="st13" points="216.62,103.16 211.73,105.98 216.62,108.81 			"/>
		</g>
	</g>
</g>
<g>
	<g>
		<line class="st12" x1="211.73" y1="95.92" x2="277.5" y2="95.92"/>
		<g>
			<polygon class="st13" points="276.68,98.75 281.57,95.92 276.68,93.1 			"/>
		</g>
	</g>
</g>
<g>
	<g>
		<line class="st12" x1="47.6" y1="105.09" x2="15" y2="105.09"/>
		<g>
			<polygon class="st13" points="15.83,102.26 10.93,105.09 15.83,107.92 			"/>
		</g>
	</g>
</g>
<g>
	<g>
		<line class="st12" x1="10.93" y1="95.92" x2="43.53" y2="95.92"/>
		<g>
			<polygon class="st13" points="42.7,98.75 47.6,95.92 42.7,93.1 			"/>
		</g>
	</g>
</g>
</svg>
